<svg xmlns="http://www.w3.org/2000/svg" width="1024" height="1024"><path d="M0 0h1024v1024H0V0Z" fill="#FCFAF9"/><path d="M187 352h35c1.4 4.202 2.421 7.712 3.125 12l.508 3c.37 3.032.43 5.949.367 9l3.563.25c6.988.75 13.694 2.84 20.437 4.75l.68-1.672c1.724-3.04 3.945-5.142 6.445-7.578l2.758-2.703L262 367c7.801 4.017 14.991 8.9 22.244 13.813 2.577 1.742 5.166 3.464 7.756 5.187-.813 5.135-2.894 9.46-5.04 14.16-1.024 3.03-1.314 3.995.04 6.84 1.973 2.48 1.973 2.48 4.375 4.938 3.03 3.191 5.488 6.208 7.625 10.062 3.648-.447 7.035-1.01 10.563-2.063 3.329-.908 6.01-1.104 9.437-.937 3.682 6.952 6.47 14.148 9.25 21.5l1.39 3.648c1.124 2.95 2.243 5.9 3.36 8.852l-16 9 1 8c.07 1.572.11 3.146.098 4.719l-.01 2.383-.026 2.398-.013 2.492c-.012 2.003-.03 4.005-.049 6.008l3.129.371c3.528.573 6.483 1.419 9.808 2.692l2.903 1.097 2.16.84c-2.217 12.358-4.471 24.702-7 37-6.742.13-13.304-.202-20-1l-1.063 3.75c-1.73 5.36-4.61 9.78-7.707 14.453-1.514 2.689-1.514 2.689-.664 5.277 2.263 3.977 4.701 7.829 7.168 11.68C308 567 308 567 307.406 568.84c-1.873 2.879-4.191 5.193-6.633 7.583l-1.538 1.53a1534.158 1534.158 0 0 1-4.86 4.798l-3.297 3.27A3171.83 3171.83 0 0 1 283 594a3370.296 3370.296 0 0 1-5.29-3.34l-2.974-1.879a98.454 98.454 0 0 1-6.111-4.343L266 583c-5.534 1.702-10.814 4.737-16.025 7.254l-2.237 1.066-2.03.977C244 593 244 593 242 593l-1 21c-10.764 2.524-20.71 3.475-31.75 3.391-2.484-.016-4.966 0-7.45.02-11.565.012-22.408-1.376-33.8-3.411l-1-22-5-1c-1.982-.99-1.982-.99-3.898-2.164-7.708-4.721-7.708-4.721-16.324-5.311-3.583 1.67-6.558 3.875-9.641 6.323C129 592 129 592 126.635 591.94c-3.524-1.259-5.324-3.179-7.936-5.851l-1.458-1.476a700.206 700.206 0 0 1-4.553-4.677 2505.202 2505.202 0 0 0-3.112-3.166c-2.536-2.58-5.06-5.172-7.576-7.771 1.967-5.133 4.75-9.457 7.734-14.063 1.529-2.774 1.529-2.774.79-5.23L109 547l-1.115-2.077a450.55 450.55 0 0 0-4.01-7.236l-1.418-2.533c-1.15-2.053-2.303-4.104-3.457-6.154l-19 1c-.82-3.936-1.631-7.874-2.438-11.813l-.697-3.333A162.43 162.43 0 0 1 74 494l17-7 .375-6.875C91.75 473.953 92.541 468.022 94 462l-2.137-.773c-3.133-1.343-5.82-2.994-8.675-4.852l-2.958-1.914L78 453c2.393-7.498 5.237-14.767 8.188-22.063l1.404-3.49c1.133-2.816 2.27-5.632 3.408-8.447 1.421.14 2.841.286 4.262.434l2.397.243c3.212.443 6.235 1.41 9.341 2.323h4c1.82-2.002 1.82-2.002 3.375-4.625 2.155-3.307 4.17-6.07 7.125-8.688L124 406c-.335-5.303-3.383-9.623-5.918-14.16C117 389 117 389 117.496 386.855c1.974-2.434 4.098-3.811 6.754-5.48a335.517 335.517 0 0 0 14.5-9.875l1.88-1.35c1.458-1.048 2.914-2.099 4.37-3.15 3.852 1.58 6.289 4.054 9.188 7l2.667 2.688C159 379 159 379 160 381c.583-.182 1.165-.364 1.766-.55 6.69-2.052 13.433-3.802 20.234-5.45l.351-1.896c.526-2.827 1.056-5.653 1.587-8.479l.552-2.984.537-2.852.492-2.634C186 354 186 354 187 352Z" fill="#F8F8F7"/><path d="M187 352h35c1.4 4.202 2.421 7.712 3.125 12l.508 3c.37 3.032.43 5.949.367 9l3.563.25c6.988.75 13.694 2.84 20.437 4.75l.68-1.672c1.724-3.04 3.945-5.142 6.445-7.578l2.758-2.703L262 367c7.801 4.017 14.991 8.9 22.244 13.813 2.577 1.742 5.166 3.464 7.756 5.187-.813 5.135-2.894 9.46-5.04 14.16-1.024 3.03-1.314 3.995.04 6.84 1.973 2.48 1.973 2.48 4.375 4.938 3.03 3.191 5.488 6.208 7.625 10.062 3.648-.447 7.035-1.01 10.563-2.063 3.329-.908 6.01-1.104 9.437-.937 3.682 6.952 6.47 14.148 9.25 21.5l1.39 3.648c1.124 2.95 2.243 5.9 3.36 8.852l-16 9 1 8c.07 1.572.11 3.146.098 4.719l-.01 2.383-.026 2.398-.013 2.492c-.012 2.003-.03 4.005-.049 6.008l3.129.371c3.528.573 6.483 1.419 9.808 2.692l2.903 1.097 2.16.84c-2.217 12.358-4.471 24.702-7 37-6.742.13-13.304-.202-20-1l-1.063 3.75c-1.73 5.36-4.61 9.78-7.707 14.453-1.514 2.689-1.514 2.689-.664 5.277 2.263 3.977 4.701 7.829 7.168 11.68C308 567 308 567 307.406 568.84c-1.873 2.879-4.191 5.193-6.633 7.583l-1.538 1.53a1534.158 1534.158 0 0 1-4.86 4.798l-3.297 3.27A3171.83 3171.83 0 0 1 283 594a3370.296 3370.296 0 0 1-5.29-3.34l-2.974-1.879a98.454 98.454 0 0 1-6.111-4.343L266 583c-5.534 1.702-10.814 4.737-16.025 7.254l-2.237 1.066-2.03.977C244 593 244 593 242 593l-1 21c-10.764 2.524-20.71 3.475-31.75 3.391-2.484-.016-4.966 0-7.45.02-11.565.012-22.408-1.376-33.8-3.411l-1-22-5-1c-1.982-.99-1.982-.99-3.898-2.164-7.708-4.721-7.708-4.721-16.324-5.311-3.583 1.67-6.558 3.875-9.641 6.323C129 592 129 592 126.635 591.94c-3.524-1.259-5.324-3.179-7.936-5.851l-1.458-1.476a700.206 700.206 0 0 1-4.553-4.677 2505.202 2505.202 0 0 0-3.112-3.166c-2.536-2.58-5.06-5.172-7.576-7.771 1.967-5.133 4.75-9.457 7.734-14.063 1.529-2.774 1.529-2.774.79-5.23L109 547l-1.115-2.077a450.55 450.55 0 0 0-4.01-7.236l-1.418-2.533c-1.15-2.053-2.303-4.104-3.457-6.154l-19 1c-.82-3.936-1.631-7.874-2.438-11.813l-.697-3.333A162.43 162.43 0 0 1 74 494l17-7 .375-6.875C91.75 473.953 92.541 468.022 94 462l-2.137-.773c-3.133-1.343-5.82-2.994-8.675-4.852l-2.958-1.914L78 453c2.393-7.498 5.237-14.767 8.188-22.063l1.404-3.49c1.133-2.816 2.27-5.632 3.408-8.447 1.421.14 2.841.286 4.262.434l2.397.243c3.212.443 6.235 1.41 9.341 2.323h4c1.82-2.002 1.82-2.002 3.375-4.625 2.155-3.307 4.17-6.07 7.125-8.688L124 406c-.335-5.303-3.383-9.623-5.918-14.16C117 389 117 389 117.496 386.855c1.974-2.434 4.098-3.811 6.754-5.48a335.517 335.517 0 0 0 14.5-9.875l1.88-1.35c1.458-1.048 2.914-2.099 4.37-3.15 3.852 1.58 6.289 4.054 9.188 7l2.667 2.688C159 379 159 379 160 381c.583-.182 1.165-.364 1.766-.55 6.69-2.052 13.433-3.802 20.234-5.45l.351-1.896c.526-2.827 1.056-5.653 1.587-8.479l.552-2.984.537-2.852.492-2.634C186 354 186 354 187 352Zm-56.625 70.75C111.923 443.778 106.359 469.73 108 497c2.495 22.281 12.164 42.164 28 58l2.297 2.297c19.664 18.636 45.01 26.261 71.738 25.922 26.666-.826 50.114-13.39 68.395-32.23 4.53-5.268 8.089-10.994 11.57-16.989l1.457-2.41c3.091-5.564 4.925-11.533 6.793-17.59l.784-2.518C305.806 488.51 302.76 462.274 292 441c-4.873-8.943-10.913-16.689-18-24l-1.629-1.852c-13.232-14.525-36.122-24.207-55.429-25.325-35.392-.67-61.568 6.518-86.567 32.927Z" fill="#D29B1A"/><path d="m514.563 396.688 3.134-.088c9.904-.081 18.353 2.343 26.303 8.4l2.438 1.625c12.334 11.432 17.062 27.909 17.865 44.242.142 4.308.164 8.613.143 12.923-.008 2.642.02 5.281.052 7.923.07 17.132-2.105 34.323-14.06 47.537-11.318 10.499-25.572 14.453-40.696 14.098-12.75-1.185-25.948-7.209-34.262-17.168-10.612-14.562-11.87-32.5-11.793-49.93l.015-3.964c.236-19.554 3.107-40.074 17.618-54.61 10.174-8.627 20.273-10.87 33.243-10.988ZM435.875 403.75c7.429 5.452 13.134 12.095 15.125 21.25 1.052 9.17 1.198 19.03-4 27-6.605 8.12-6.605 8.12-12 9v2l2 .625c8.67 3.974 13.436 9.49 16.746 18.379 2.934 10.017 1.653 21.27-3.035 30.547-6.66 10.595-16.237 16.308-28.274 19.261-16.86 3.237-34.138 1.74-48.988-7.378-8.4-6.085-12.835-13.273-14.976-23.391-1.539-9.905-.716-18.878 5.105-27.336 3.63-4.357 7.598-7.738 12.422-10.707h3v-2l-2-.563c-7.316-3.505-12.2-8.862-15-16.437-2.889-9.147-.789-18.467 3-27 5.392-9.62 14.318-15.723 24.656-19.117 15.144-3.626 32.85-2.275 46.219 5.867Z" fill="#0B2949"/><path d="M577 399c69.872 0 69.872 0 83 13 9.07 11.035 10.928 23.143 10 37-1.623 11.128-5.714 19.965-14.418 27.21-11.66 8.08-25.01 9.123-38.77 8.915L605 485v45h-28V399Z" fill="#0C2B4B"/><path d="M765 399h28l.028 8.318c.034 9.085.09 18.17.156 27.253.04 5.507.072 11.013.087 16.519.015 5.317.05 10.633.097 15.95.015 2.025.023 4.05.024 6.076.002 2.844.03 5.687.062 8.53l-.015 2.52c.111 6.296 1.62 11.73 6.043 16.399 4.849 4.212 8.567 4.61 14.83 4.685l3.926.078c5.506-.48 8.637-2.203 12.512-6.078 4.208-6.078 4.55-12.165 4.569-19.306l.03-2.664c.031-2.883.048-5.767.065-8.651.019-2.008.038-4.016.059-6.024.051-5.268.09-10.537.128-15.806.04-5.383.091-10.766.141-16.149.097-10.55.18-21.1.258-31.65h28c.09 12.18.164 24.358.207 36.538.021 5.656.05 11.312.095 16.968.043 5.466.067 10.932.078 16.398.007 2.078.021 4.156.043 6.234.176 17.578-2.077 32.554-14.407 46.01C842.338 528.201 832.373 532.45 822 533l-3.535.195c-15.91.587-30.648-3.175-42.613-14.187-8.36-9.066-11.34-20.069-11.193-32.14v-2.9c.001-3.128.024-6.255.048-9.382a4481.147 4481.147 0 0 1 .087-23.702c.03-5.845.044-11.69.06-17.536.032-11.45.084-22.899.146-34.348Z" fill="#0B2949"/><path d="M950.438 404.25c7.404 5.652 12.1 12.745 14.562 21.75l1 9h-28l-3-9c-4.525-3.93-10.2-3.43-15.93-3.293-5.156.492-8.753 2.378-12.07 6.293-1.464 4.601-1.475 8.05.688 12.375 3.942 4.475 7.767 6.34 13.386 8.148l4.213 1.407c2.193.722 4.387 1.44 6.582 2.158 13.08 4.292 25.488 8.47 33.053 20.752 4.908 9.833 4.954 23.959 1.515 34.348-4.933 10.946-12.668 17.773-23.812 22.132-15.665 4.828-31.893 4.259-46.813-2.57-9.34-4.988-15.828-11.902-19.625-21.887C874.826 501.048 875 497.164 875 492h27l4 10c7.188 5.263 14.308 5.769 23 5 4.013-1.016 6.81-2.51 9.41-5.766 1.999-3.441 2.894-6.434 2.653-10.421-1.268-4.55-2.266-6.023-6.063-8.813-6.093-3.166-12.843-4.906-19.375-6.938-26.946-8.448-26.946-8.448-34.688-21.875-4.39-8.576-4.242-19.967-2.289-29.277 4.415-11.94 12.901-18.734 24.024-24.23 15.066-6.086 34.242-4.185 47.765 4.57Z" fill="#0C2949"/><path d="M683 399h27v106h47v25h-74V399Z" fill="#0A2848"/><path d="M523.453 423.84c5.656 3.205 9.209 7.975 11.181 14.142 1.71 7.758 1.704 15.537 1.682 23.44-.003 2.376.02 4.75.045 7.127.1 23.894.1 23.894-7.361 32.451-5.745 5.185-10.323 5.299-17.836 5.207-5.376-.352-8.506-2.323-12.289-5.957-7.225-9.277-7.51-22.608-7.342-33.876.03-2.137.02-4.272.008-6.41.017-10.838 1.295-21.718 7.459-30.964 6.833-6.491 15.37-8.27 24.453-5.16Z" fill="#F9F8F7"/><path d="M208 448h39c4 19 4 19 4 36h-43v-36Z" fill="#0D2949"/><path d="M168.51 447.886c1.56 0 3.121.006 4.681.016l2.485.005c2.629.005 5.258.018 7.886.03 1.778.006 3.556.01 5.334.014 4.368.01 8.736.03 13.104.049v36h-42c0-17.307 0-17.307 1.937-25.875l.553-2.66c1.585-7.435 1.585-7.435 6.02-7.579Z" fill="#0D2948"/><path d="M208 490h44c-2 19-2 19-7 35h-37v-35Z" fill="#0A2747"/><path d="M160 490h42v35h-36c-6-19.2-6-19.2-6-35Z" fill="#0B2747"/><path d="M130.143 447.886c1.391 0 2.782.006 4.173.016l2.216.005c2.343.005 4.687.018 7.03.03A4809.622 4809.622 0 0 1 160 448l-.351 1.797c-.538 2.775-1.062 5.551-1.587 8.328l-.552 2.824c-1.458 7.792-1.935 15.004-2.51 23.051h-37c0-7.918 1.417-35.726 12.143-36.114Z" fill="#0C2948"/><path d="m605 424 11-.188 3.418-.082c6.49-.053 13.103.019 18.136 4.723 4.08 4.75 4.643 7.617 4.759 13.797l.113 3.953c-.611 5.447-2.962 8.408-6.864 12.11-4.155 2.736-8.199 2.812-13.082 2.785l-2.792-.008-3.5-.027L605 461v-37Z" fill="#FBFAF9"/><path d="M118 490h36c1.875 12.438 1.875 12.438 2.453 16.302l.477 3.132.476 3.158c.726 4.162 1.677 8.283 2.594 12.408h-32c-6.808-13.616-6.808-13.616-8.375-19.75l-.96-3.61C118 498 118 498 118 490Z" fill="#0B2847"/><path d="M420 477c3.617 2.924 5.867 5.467 7 10 .635 6.008.044 10.646-3 16-5.818 5.665-11.422 6.402-19.325 6.366-5.336-.143-9.545-.885-13.675-4.366-4.635-5.823-5.671-10.753-5-18 1.789-5.167 4.53-7.906 9-11 8.344-3.306 16.94-2.928 25 1Z" fill="#F8F8F7"/><path d="M253 448c4.583-.145 9.165-.234 13.75-.313l3.945-.126 3.79-.05c1.151-.025 2.304-.052 3.49-.079 3.025.568 3.025.568 5.358 2.953C290.017 460.867 291 471.727 291 484h-34l-.875-9.813c-.624-6.78-1.334-13.46-2.758-20.128C253 452 253 452 253 448Z" fill="#0D2948"/><path d="M257 490h34c0 5.852-.252 10.374-1.688 15.875l-.532 2.092c-1.544 5.755-3.465 12.718-7.78 17.033-2.219.088-4.44.107-6.66.098l-2.014-.005c-2.13-.005-4.259-.018-6.389-.03A3970.039 3970.039 0 0 1 251 525l.444-2.46c.547-3.039 1.093-6.078 1.638-9.118.35-1.952.702-3.903 1.054-5.854l.674-3.76.618-3.443c.587-3.445 1.079-6.906 1.573-10.365Z" fill="#0B2847"/><path d="M208 401c7.743 4.302 12.795 8.053 19 14l1.941 1.75c7.173 6.675 12.034 15.395 16.059 24.25v2h-37v-42Z" fill="#0A2646"/><path d="M191 401v2c-1.504 1.262-1.504 1.262-3.563 2.688-13.27 9.754-19.572 22.438-26.437 37.312h-31c7.116-17.79 24.772-29.25 41.676-36.715C185.346 401 185.346 401 191 401Z" fill="#0B2646"/><path d="M202 401v42h-35c5.674-17.02 16.023-32.385 32.223-41.21C201 401 201 401 202 401Z" fill="#0A2645"/><path d="M131 531h31l3.563 7.313c6.656 13.382 14.682 24.28 25.437 34.687-20.886-3.159-41.056-14.63-53.809-31.621C131 532.732 131 532.732 131 531Z" fill="#0B2747"/><path d="M208 531h35c-5.233 15.698-15.737 32.22-31 40l-4 1v-41Z" fill="#0B2746"/><path d="M167 531h35v41c-18.128-9.064-26.902-22.06-35-40v-1Z" fill="#0B2646"/><path d="M221 402c18.214 2.164 31.914 10.474 45 23l1.969 1.777c4.75 4.428 8.027 9.479 11.031 15.223v1h-29l-2.438-6.188C242.2 424.002 233.986 414.397 224 405a389.625 389.625 0 0 1-3-3Z" fill="#0B2747"/><path d="M249 531h29c-11.5 20.126-28.582 32.601-50.04 40.285-2.882.696-4.239.77-6.96-.285l2.309-2.133C234.998 557.8 242.086 545.417 249 531Z" fill="#0C2746"/><path d="M416 422.125c3.476 2.173 6.237 4.139 8 7.875.915 4.937.538 8.79-1.5 13.375-4.694 4.929-9.181 6.845-16 7.063-6.214-.26-11.074-1.386-15.938-5.5-2.25-4.233-2.753-8.168-2.562-12.938 1.587-4.761 3.867-7.21 8-10 6.014-2.005 14.004-2.13 20 .125Z" fill="#F8F8F7"/><path d="M638.313 566.625c3.88 3.43 6.356 5.912 7.07 11.219.178 4.798.03 8.265-2.008 12.656-3.91 4.116-7.03 6.705-12.813 7-4.621-.249-8.123-1.337-11.562-4.5-3.442-4.511-4.68-9.193-4.379-14.828.767-4.393 2.532-7.555 5.887-10.492 5.7-3.791 11.716-4.042 17.804-1.055Z" fill="#D19616"/><path d="m935 566 8.125-.25 2.524-.11c5.268-.078 8.16.903 12.351 4.36 3.62 3.981 3.453 8.206 3.273 13.348-.452 4.39-1.625 6.986-4.726 10.12C949.527 598.963 944.835 597 935 597v-31Z" fill="#CF9111"/><path d="M815 565h10l6 16c2.04-3.06 2.956-5.634 4.063-9.125 1.833-5.771 1.833-5.771 2.937-6.875h9v32h-6l-1-19-7 19-4-1c-1.097-1.95-1.097-1.95-1.922-4.473l-.918-2.724-.91-2.865-.957-2.877A731.576 731.576 0 0 1 822 576l-1 20h-6v-31Z" fill="#D09619"/><path d="m470 566 9.188-.313 2.867-.137c4.43-.073 6.37.022 10.03 2.747 2.48 3.5 2.45 5.495 1.915 9.703-1.178 3.534-3.041 4.859-6 7l1.313 1.898 1.687 2.477 1.688 2.46C494 594 494 594 494 596c-2.625.563-2.625.563-6 0-2.692-3.002-6-6.829-6-11h-6v11h-6v-30Z" fill="#CF9212"/><path d="M375 565c7 0 7 0 8.896 1.652l1.413 2.285c.518.813 1.037 1.625 1.572 2.461l1.557 2.602 1.638 2.602c1.33 2.119 2.63 4.257 3.924 6.398l1-18h6v31h-6c-2.195-2.195-2.195-2.195-4.125-5.125l-1.945-2.883L387 585l-4-6-1 18h-7v-32Z" fill="#D09616"/><path d="M654 565h7c2.04 2.16 2.04 2.16 3.625 5.063 2.6 4.623 5.23 8.535 8.375 12.937l1-18h6v31c-6 0-6 0-7.675-1.345l-1.282-1.866-1.432-2.023-1.423-2.141-1.483-2.117c-3.388-4.873-3.388-4.873-4.705-7.508l-1 18h-7v-32Z" fill="#CF9312"/><path d="M523 565h6v31h-6c-2.091-2.233-3.613-4.159-5.25-6.688l-1.313-1.896c-2.273-3.35-4.11-6.563-5.437-10.416-1.205.984-1.205.984-1.114 2.858l.016 2.396.01 2.588.026 2.72.013 2.733c.012 2.235.028 4.47.049 6.705h-7v-31c7 0 7 0 8.88 1.545l1.393 2.139 1.559 2.31 1.543 2.443 1.613 2.432c.98 1.478 1.951 2.963 2.908 4.457.997 1.634.997 1.634 2.104 2.674v-19Z" fill="#D1991A"/><path d="M904 565h22v7h-15v6h13v6h-13v7h14v6h-21v-32Z" fill="#CF9417"/><path d="M548 565h8c1.272 3.645 2.542 7.291 3.813 10.938l1.08 3.095c2.08 5.975 4.121 11.96 6.107 17.967h-7l-2-7-12 1-2 6h-7c2.097-7.327 4.549-14.477 7.188-21.625l1.115-3.043c.896-2.445 1.795-4.889 2.697-7.332Z" fill="#D19718"/><path d="M440 565h21v7h-14v6h13v6h-13v7h14v6h-21v-32Z" fill="#D49F2A"/><path d="M702.563 565.938 706 566a540.96 540.96 0 0 1 8.313 20.563l.807 2.091c1.102 2.928 1.88 5.19 1.88 8.346h-7l-2-6-12-1-.438 2.938C695 596 695 596 694 597c-2 .04-4 .043-6 0 .666-3.804 1.724-7.29 3.031-10.922l1.207-3.355 1.262-3.473 1.262-3.52c3.512-9.717 3.512-9.717 7.8-9.793Z" fill="#CF9413"/><path d="M577 399c47 0 47 0 56 1v1h-54v128h24v-43h1l1 44h-28V399Z" fill="#011536"/><path d="M872 565h24v7h-8v25h-8v-25h-8v-7Z" fill="#CE910F"/><path d="M409 565h23v6h-8v26h-7v-26h-8v-6Z" fill="#D39D23"/><path d="M568 565h23v6h-8v26h-6v-26h-9v-6Z" fill="#D19716"/><path d="M725 565h6v26h14v6h-20v-32Z" fill="#D49E1F"/><path d="M770 565h6v26h14v6h-20v-32Z" fill="#D0971B"/><path d="M629.813 570.563c3.187.437 3.187.437 6.062 2.25 3.078 4.617 3.155 8.79 2.125 14.187-2.56 3.238-4.03 3.842-8.063 4.5-2.937-.5-2.937-.5-5.25-1.938-2.431-3.693-2.906-7.172-2.687-11.562 1.753-3.924 3.401-6.751 7.813-7.438Z" fill="#FBF9F4"/><path d="M941 571c8 0 8 0 10.938 1.438 2.923 3.632 3.366 6.956 3.062 11.562-1.35 3.023-2.676 4.676-5 7h-9v-20Z" fill="#FCFAF6"/><path d="M798 565h7v32h-7v-32Z" fill="#D2992D"/><path d="M599 565h7v32h-7v-32Z" fill="#D29A1F"/><path d="M857 565h7v32h-7v-32Z" fill="#CF9417"/><path d="M904 565h22v7h-15l1 8h10v3l-2.52.078-3.293.172-3.269.14c-3.035.34-3.035.34-4.805 2.657L907 588c-.922-2.766-1.118-4.383-1.098-7.23l.008-2.193.028-2.764L906 567h18l1 4v-5h-21v-1Z" fill="#D8A737"/><path d="M655 566c6 0 6 0 7.75 1.563 1.566 3.053 2.42 6.116 3.25 9.437l-3 1v-2l-2 1-1 19h-5v-30Z" fill="#D19715"/><path d="M359 566h6v30h-6v-30Z" fill="#CF9312"/><path d="M375 565h7v1h-6v30h5l-4-1v-28c5 1 5 1 6.938 2.688C385 572 385 572 384.104 574.528c-1.424 4.475-1.561 8.679-1.73 13.347l-.117 2.664c-.094 2.153-.177 4.307-.258 6.461h-7v-32Z" fill="#D9A839"/><path d="M702 574c2.098 2.098 2.65 3.38 3.625 6.125.39 1.087.39 1.087.79 2.195L707 584l4-1 1 5c-3.003 1.502-5.79 1.093-9.125 1.063l-3.883-.028L696 589l-.438 3.438C695 596 695 596 694 597c-2 .04-4 .043-6 0 .295-1.674.639-3.34 1-5l.688-3.188C691 586 691 586 694 584.563c3-.562 3-.562 5 .438l.375-3.25c.521-3.129 1.026-5.085 2.625-7.75Z" fill="#D39B1D"/><path d="M872 565h24v7h-8v25h-8v-25h-8v-1h9v25h6c-.139-3.917-.287-7.833-.438-11.75l-.119-3.367-.127-3.242-.11-2.984c-.151-2.911-.151-2.911-1.206-6.657l-13-1v-2Z" fill="#DAAD4A"/><path d="M118 484h37l-1 6h-36l2-4-2-2Z" fill="#E6E9EC"/><path d="M654 565h7v1h-6v30h5v-19l3-1v2l2-1-1-5c4.873 4.3 7.82 9.372 11 15h-2v2c-3.245-.304-4.619-.563-6.8-3.066L662 579l-1 18h-7v-32Z" fill="#D7A537"/><path d="M951 566v3c-1.663 1.663-3.783 1.36-6.063 1.563L940 571v20l4 1a502.64 502.64 0 0 1 6 2v1h-14v-28l15-1Z" fill="#D49E20"/><path d="M548 565h8c2.125 7.625 2.125 7.625 1 11l-2 1 1 8h-8l.473-2.082.59-2.73.597-2.708c.42-3.066-.285-4.813-1.785-7.48-.875-2-.875-2 .125-5Z" fill="#D39C22"/><path d="M472 567h14l-1 2h-10l1 11 10 1-3 1v2h-8v11h-3v-28Z" fill="#D49F1F"/><path d="M376 566h6c2.195 2.195 2.195 2.195 4.125 5.125l2.04 3.027c.605.94 1.21 1.88 1.835 2.848.832 1.23 1.665 2.46 2.5 3.688L394 583l-1 2-3-4v4l-1 2a700.574 700.574 0 0 1-2.938-3.813l-1.652-2.144C383 579 383 579 382 576c.938-2.188.938-2.188 2-4-2.253-3.492-2.706-3.926-7-5v28h3v-19h1v20h-5v-30Z" fill="#CC8E0C"/><path d="M800 567h4v28h-4v-28Z" fill="#D49F20"/><path d="M725 566h1v29h17v-3h-13v-20h1v19h14v6h-20v-31Z" fill="#CE8F17"/><path d="M130 443h30v2c-5.834.833-11.553 1.11-17.438 1.125l-2.152.014c-5.162-.015-5.162-.015-7.41-1.139v2h26v1h-32v-1h5v-2h-2v-2Z" fill="#FDFCFC"/><path d="M159 477h1v7h42v1l-6 1v2h-26v-2l-11-1v-8Z" fill="#DEE2E6"/><path d="M476 571a364.73 364.73 0 0 1 4.875-.125l2.742-.07C486 571 486 571 488 573c-.33 3.297-.623 4.623-3 7-3.018.272-5.964.087-9 0v-9Z" fill="#F9F5EA"/><path d="M568 565h23v6l-8 1-1 22h-1c-.029-3.812-.047-7.625-.063-11.438l-.025-3.298-.01-3.135-.016-2.904C581 571 581 571 582 570c2.333-.04 4.667-.042 7 0v-3h-19v4h-2v-6Z" fill="#D49C27"/><path d="m154 490 1 4 5-4c.254 3.123.474 6.248.688 9.375l.22 2.695.166 2.578.175 2.38L161 509l-3 2-2-1c-.633-2.95-.633-2.95-1.125-6.688l-.508-3.699A77.329 77.329 0 0 1 154 490Z" fill="#E7EBED"/><path d="m884 572 2 1v22h-4c-.058-3.27-.094-6.541-.125-9.813-.017-.928-.034-1.857-.05-2.814l-.02-2.705-.032-2.491C882 575 882 575 884 572Z" fill="#D39E1F"/><path d="M857 567h1l.148 2.484.227 3.266c.07 1.067.14 2.135.21 3.234.388 2.818.972 4.599 2.415 7.016l2-1v13h-6v-28Z" fill="#D49F23"/><path d="M511 569c2.953 2.822 5.434 5.743 7.813 9.063l1.894 2.597L522 583l-1 3-4-5c.615 3.995 2.706 6.745 5 10l-1 2a8935.831 8935.831 0 0 1-6.055-8.3c-2.892-4.014-4.198-5.943-4.07-10.888l.055-2.73L511 569Z" fill="#CF9312"/><path d="M674 565h6l-1 25h-1l-1-5h-1v-18h-2v-2Z" fill="#D39C24"/><path d="M906 567h18v3h-14l-1 6-3 1v-10Z" fill="#D49F20"/><path d="M816 578h3c1.187 3.56 1.097 6.438 1.063 10.188l-.028 3.855L820 595h-4v-17Z" fill="#D39D1D"/><path d="M912 578h12v6h-13l1 8-3-1c-.042-2.333-.04-4.667 0-7 1-1 1-1 3.723-1.098l3.34.035 3.347.028L922 583v-3h-10v-2Z" fill="#CD8F0A"/><path d="M168 594h1l2 18 22 3v1c-8.643.227-16.541-.171-25-2v-20Z" fill="#CA8C0C"/><path d="M523 565h6l-1 15h-1l-1-5h-1l-1 9h-1v-19Z" fill="#D7A432"/><path d="M444 583h1l1 9 13 1v2h-17c-.25-8.625-.25-8.625 2-12Z" fill="#D5A022"/><path d="m153 475 2 1v8l-2-1c-2.554-.087-5.08-.116-7.633-.098l-2.278.005c-2.405.005-4.81.018-7.214.03-1.629.006-3.258.01-4.887.014-3.996.011-7.992.028-11.988.049v-1h33v-6l1-1Z" fill="#153556"/><path d="M551 574c2 1 2 1 2.852 3.285l.773 2.778c.26.919.52 1.838.79 2.785L556 585h-8c.31-1.459.622-2.917.938-4.375l.527-2.46C550 576 550 576 551 574Z" fill="#F7F0DD"/><path d="M702 574c2.313 2.313 2.496 3.479 3.125 6.625l.508 2.477L706 585h-7c.468-4.056.88-7.466 3-11Z" fill="#F7EEDB"/><path d="M643 573c2.655 2.655 2.329 4.05 2.375 7.75-.065 5.435-.786 8.212-4.375 12.25-2.097-2.36-2.97-3.546-3.188-6.75L638 584l5 1v-12Z" fill="#CE8F0E"/><path d="m221 402 10 2-3 1 1.355 1.54c3.608 4.106 7.166 8.243 10.645 12.46l-1 2-2.16-2.414c-5.03-5.58-10.025-10.805-15.84-15.586v-1Z" fill="#101B34"/><path d="M179 562c4.184 3.509 8.196 7.08 12 11-6.067-1.038-11.437-2.34-17-5 3.2-1.6 5.723-.032 9 1l-2-2.375C179 564 179 564 179 562Z" fill="#0B1835"/><path d="M251 491c3.102 2.068 3.812 2.62 5 6 .078 2.332.09 4.668 0 7l-4-2-1 3c-1.104-3.311-.927-5.247-.563-8.688l.31-3.011L251 491Z" fill="#E9EDEF"/><path d="m635 589 2 3c-4 4-4 4-6.383 4.195l-2.742-.07-2.758-.055L623 596l2-5 3.875.125c2.144.117 2.144.117 4.125-.125l2-2Z" fill="#D49D1E"/><path d="M484 585c4.208 1.503 5.803 4.233 8 8v2c-2.813-.125-2.813-.125-6-1-1.938-2.875-1.938-2.875-3-6l1-3Z" fill="#D39C1E"/><path d="m252 502 3 1v7h-2l-1 2-2-1-1 3c.115-1.438.242-2.876.375-4.313.07-.8.14-1.6.21-2.425C250 505 250 505 252 502Z" fill="#FBFBF9"/><path d="M255 463h1l1 12-3-3-2 7h-1v-11h3l1-5Z" fill="#E9ECEF"/><path d="m76 493 3 1v2h-2l-1 6 4 1-3 6c-1.913-3.266-2.357-5.994-2.625-9.75l-.227-2.984L74 494l2-1Z" fill="#CE9311"/><path d="M827 574c2 1 2 1 3.125 3.75.817 3.035 1.377 5.155.875 8.25-2 1.813-2 1.813-4 3-1.46-2.647-2-3.894-2-7l3-2-1-6Z" fill="#CF9315"/><path d="M561 590h4l2 7h-7c-1-3-1-3-.063-5.188L561 590Z" fill="#D59F2C"/><path d="m953 570 6 1v7h-5l-1-8Z" fill="#D39D1F"/><path d="m105 538 3 1 1 4 3 1 .438 2.375c.44 2.59.44 2.59 1.562 4.625l-3 4-.188-3c-.553-4.116-2.417-6.932-4.753-10.3C105 540 105 540 105 538Z" fill="#CF9212"/><path d="M822 577c2.35 2.35 2.731 3.957 3.625 7.125.26.91.52 1.82.79 2.758L827 589h-2l-2 2-1-14Z" fill="#FAF6ED"/><path d="m638 578 2 4 2-3 2-1c.25 6.625.25 6.625-2 10l-1-3-3-1v-6Z" fill="#D6A229"/><path d="m833 580 3 2 2-2c-.281 1.481-.575 2.96-.875 4.438l-.492 2.496L836 589l-2 1 1-5-3 1a99.984 99.984 0 0 1 0-5l1-1Z" fill="#CE9210"/><path d="m557 573 2 1c.633 2.066.633 2.066 1.125 4.563l.508 2.503L561 583l-4-5-2 4-1-5 3-1v-3Z" fill="#CD900F"/><path d="M238 567a587.25 587.25 0 0 1-6.25 2.563l-3.516 1.44c-3.097.955-4.307 1.207-7.234-.003 2.95-1.568 5.871-2.7 9.063-3.688l2.597-.824C235 566 235 566 238 567Z" fill="#070F28"/><path d="M191 401v2l-9 4-1-4c1.29-.336 2.583-.669 3.875-1l2.18-.563C189 401 189 401 191 401Z" fill="#1C2D48"/><path d="M544 590c.934 3.01 1.044 3.867 0 7h-7l2-6 1 3 3 1 1-5Z" fill="#D2992B"/><path d="M715 591c2 3 2 3 2 6h-7v-3h5v-3Z" fill="#D29B2A"/><path d="m501 529 12 1v2c-3.375.625-3.375.625-7 1l-2-2-3-2Z" fill="#163352"/><path d="m551 574 2 1c.625 2.563.625 2.563 1 5l-5 1 2-7Z" fill="#FAF5E9"/><path d="M699 570h3c.625 1.875.625 1.875 1 4l-2 2h-4l2-6Z" fill="#D59F24"/><path d="M837 577v2h2c-1.065 2.13-2.292 3.366-4 5l-2-6c2-1 2-1 4-1Z" fill="#D39D20"/><path d="M702 574c2 2 2 2 2.125 4.625L704 581l-3 1c-.125-5.75-.125-5.75 1-8Z" fill="#FCFAF3"/><path d="m836 573 2 1c.625 2.563.625 2.563 1 5h-2v-2h-2l-1 2c.875-4.875.875-4.875 2-6Z" fill="#CF9314"/><path d="m247 531 1 4-2.375.438c-2.59.44-2.59.44-4.625 1.562.188-1.875.188-1.875 1-4 2.563-1.25 2.563-1.25 5-2Z" fill="#EBEDF1"/><path d="M615 576c1.644 3.287 2.413 5.48 3 9h-3v-9Z" fill="#D59F27"/><path d="m493 578 2 1-3 3 1-4Zm-3 4 2 1-2 3-3-1 3-3Z" fill="#F6EDDA"/><path d="M467 493h2c1.125 6.625 1.125 6.625 0 10-1.604-3.508-2.22-6.144-2-10Z" fill="#071533"/></svg>