<?xml version="1.0" encoding="UTF-8"?>
<svg version="1.1" xmlns="http://www.w3.org/2000/svg" width="1024" height="1024">
<path d="M0 0 C337.92 0 675.84 0 1024 0 C1024 337.92 1024 675.84 1024 1024 C686.08 1024 348.16 1024 0 1024 C0 686.08 0 348.16 0 0 Z " fill="#FCFAF9" transform="translate(0,0)"/>
<path d="M0 0 C11.55 0 23.1 0 35 0 C36.40080745 4.20242235 37.42143752 7.71161919 38.125 12 C38.29257813 12.99 38.46015625 13.98 38.6328125 15 C39.0039118 18.0319602 39.06356884 20.94869572 39 24 C40.175625 24.0825 41.35125 24.165 42.5625 24.25 C49.55112966 25.00038171 56.25736681 27.09003144 63 29 C63.22429687 28.44828125 63.44859375 27.8965625 63.6796875 27.328125 C65.40385183 24.28788256 67.62515822 22.18574327 70.125 19.75 C71.03507813 18.85796875 71.94515625 17.9659375 72.8828125 17.046875 C73.93082031 16.03367187 73.93082031 16.03367187 75 15 C82.80137406 19.01696767 89.99103217 23.90094158 97.24365234 28.81298828 C99.82070902 30.55466879 102.41015103 32.27741228 105 34 C104.18673634 39.13490893 102.1064831 43.46010747 99.9609375 48.16015625 C98.93556725 51.1904171 98.64629994 52.15493546 100 55 C101.97346267 57.48003862 101.97346267 57.48003862 104.375 59.9375 C107.40405046 63.12934959 109.86261916 66.14581971 112 70 C115.64840062 69.55325707 119.03455387 68.98969446 122.5625 67.9375 C125.89189539 67.02948308 128.57211192 66.83278595 132 67 C135.68223428 73.95150771 138.47066868 81.14769913 141.25 88.5 C141.70890625 89.70398438 142.1678125 90.90796875 142.640625 92.1484375 C143.76409947 95.09755799 144.88255806 98.04858846 146 101 C138.08 105.455 138.08 105.455 130 110 C130.33 112.64 130.66 115.28 131 118 C131.06968391 119.57170946 131.10922398 121.14553906 131.09765625 122.71875 C131.09443359 123.50507813 131.09121094 124.29140625 131.08789062 125.1015625 C131.07951172 125.89304687 131.07113281 126.68453125 131.0625 127.5 C131.05798828 128.32242188 131.05347656 129.14484375 131.04882812 129.9921875 C131.03718489 131.99482396 131.01925556 133.99742227 131 136 C132.03253906 136.12246094 133.06507813 136.24492187 134.12890625 136.37109375 C137.65721446 136.94431032 140.61216216 137.78983984 143.9375 139.0625 C144.89527344 139.42472656 145.85304688 139.78695312 146.83984375 140.16015625 C147.55269531 140.43730469 148.26554687 140.71445312 149 141 C146.78311907 153.35796804 144.52865192 165.70155658 142 178 C135.25766581 178.12910853 128.69613196 177.797837 122 177 C121.649375 178.2375 121.29875 179.475 120.9375 180.75 C119.20729574 186.11024065 116.32776134 190.52936612 113.23046875 195.203125 C111.71586551 197.89166591 111.71586551 197.89166591 112.56640625 200.48046875 C114.82891358 204.45680996 117.26699341 208.30851531 119.734375 212.16015625 C121 215 121 215 120.40576172 216.83862305 C118.53313212 219.71781544 116.21456529 222.03188363 113.7734375 224.421875 C113.26575836 224.92672424 112.75807922 225.43157349 112.23501587 225.95172119 C110.61966158 227.55592096 108.99747791 229.15300856 107.375 230.75 C106.27558302 231.83938107 105.17661941 232.9292199 104.078125 234.01953125 C101.3906398 236.68501885 98.69700979 239.34415143 96 242 C94.23580698 240.88857722 92.47306467 239.77485147 90.7109375 238.66015625 C89.72915527 238.04019775 88.74737305 237.42023926 87.73583984 236.78149414 C85.61711375 235.40184535 83.62977538 233.96973522 81.625 232.4375 C80.75875 231.963125 79.8925 231.48875 79 231 C73.46567567 232.70208501 68.18607637 235.73742511 62.97460938 238.25390625 C62.23662109 238.60582031 61.49863281 238.95773437 60.73828125 239.3203125 C60.06837158 239.64273926 59.39846191 239.96516602 58.70825195 240.29736328 C57 241 57 241 55 241 C54.67 247.93 54.34 254.86 54 262 C43.2357781 264.52411655 33.29021893 265.47532755 22.24951172 265.39111328 C19.7660353 265.37510337 17.28420722 265.391019 14.80078125 265.41015625 C3.23508577 265.42298991 -7.60845163 264.03497414 -19 262 C-19.33 254.74 -19.66 247.48 -20 240 C-21.65 239.67 -23.3 239.34 -25 239 C-26.98193359 238.00927734 -26.98193359 238.00927734 -28.8984375 236.8359375 C-36.60594736 232.11496968 -36.60594736 232.11496968 -45.22216797 231.52490234 C-48.80467958 233.19431806 -51.77997789 235.4004098 -54.86328125 237.84765625 C-58 240 -58 240 -60.36474609 239.94140625 C-63.88896012 238.68243189 -65.68949731 236.76221036 -68.30078125 234.08984375 C-68.7820195 233.60294571 -69.26325775 233.11604767 -69.75907898 232.61439514 C-71.28657021 231.06460092 -72.79952748 229.50145808 -74.3125 227.9375 C-75.3486791 226.88124806 -76.3857791 225.82589867 -77.42382812 224.77148438 C-79.95996895 222.1913578 -82.48326459 219.5990748 -85 217 C-83.03275637 211.86655456 -80.25002568 207.54334672 -77.265625 202.9375 C-75.73707442 200.16346618 -75.73707442 200.16346618 -76.4765625 197.70703125 C-76.97929688 196.81371094 -77.48203125 195.92039062 -78 195 C-78.36802734 194.31470215 -78.73605469 193.6294043 -79.11523438 192.92333984 C-80.42519427 190.49567533 -81.77071506 188.0906919 -83.125 185.6875 C-83.59292969 184.85154297 -84.06085938 184.01558594 -84.54296875 183.15429688 C-85.69261734 181.10135297 -86.84594514 179.05047017 -88 177 C-94.27 177.33 -100.54 177.66 -107 178 C-107.81989215 174.06391258 -108.63106912 170.12634834 -109.4375 166.1875 C-109.66759766 165.08728516 -109.89769531 163.98707031 -110.13476562 162.85351562 C-111.55127935 155.89412209 -112.48509288 149.08441171 -113 142 C-107.39 139.69 -101.78 137.38 -96 135 C-95.814375 131.596875 -95.814375 131.596875 -95.625 128.125 C-95.25028637 121.95265252 -94.459453 116.02201482 -93 110 C-93.70511719 109.74476563 -94.41023438 109.48953125 -95.13671875 109.2265625 C-98.2696348 107.88449478 -100.95714425 106.23270133 -103.8125 104.375 C-105.27623047 103.42753906 -105.27623047 103.42753906 -106.76953125 102.4609375 C-107.50558594 101.97882813 -108.24164063 101.49671875 -109 101 C-106.6065288 93.50151713 -103.76336589 86.2325793 -100.8125 78.9375 C-100.34908203 77.78572266 -99.88566406 76.63394531 -99.40820312 75.44726562 C-98.2745028 72.63054626 -97.13838499 69.81482853 -96 67 C-94.57902179 67.14049059 -93.15854031 67.28601025 -91.73828125 67.43359375 C-90.94719971 67.51407959 -90.15611816 67.59456543 -89.34106445 67.67749023 C-86.12854905 68.12005284 -83.10628972 69.08638538 -80 70 C-78.68 70 -77.36 70 -76 70 C-74.17968254 67.99821068 -74.17968254 67.99821068 -72.625 65.375 C-70.46993073 62.06776166 -68.45460965 59.30542157 -65.5 56.6875 C-64.2625 55.3571875 -64.2625 55.3571875 -63 54 C-63.33484579 48.69676661 -66.38311861 44.37739717 -68.91796875 39.83984375 C-70 37 -70 37 -69.50390625 34.85546875 C-67.53040458 32.42062903 -65.40579312 31.04374701 -62.75 29.375 C-57.81998997 26.2039984 -53.00801457 22.92386631 -48.25 19.5 C-47.62963867 19.05446777 -47.00927734 18.60893555 -46.37011719 18.14990234 C-44.91223892 17.10156357 -43.45593781 16.05103203 -42 15 C-38.14750011 16.58051278 -35.71095984 19.05444554 -32.8125 22 C-31.49185547 23.3303125 -31.49185547 23.3303125 -30.14453125 24.6875 C-28 27 -28 27 -27 29 C-26.41734375 28.81824219 -25.8346875 28.63648438 -25.234375 28.44921875 C-18.54308794 26.39764489 -11.80119035 24.64771106 -5 23 C-4.88406494 22.37432129 -4.76812988 21.74864258 -4.64868164 21.10400391 C-4.12306613 18.27708033 -3.59284139 15.45104062 -3.0625 12.625 C-2.88009766 11.64015625 -2.69769531 10.6553125 -2.50976562 9.640625 C-2.33251953 8.69960938 -2.15527344 7.75859375 -1.97265625 6.7890625 C-1.72914429 5.48509521 -1.72914429 5.48509521 -1.48071289 4.15478516 C-1 2 -1 2 0 0 Z " fill="#F8F8F7" transform="translate(187,352)"/>
<path d="M0 0 C11.55 0 23.1 0 35 0 C36.40080745 4.20242235 37.42143752 7.71161919 38.125 12 C38.29257813 12.99 38.46015625 13.98 38.6328125 15 C39.0039118 18.0319602 39.06356884 20.94869572 39 24 C40.175625 24.0825 41.35125 24.165 42.5625 24.25 C49.55112966 25.00038171 56.25736681 27.09003144 63 29 C63.22429687 28.44828125 63.44859375 27.8965625 63.6796875 27.328125 C65.40385183 24.28788256 67.62515822 22.18574327 70.125 19.75 C71.03507813 18.85796875 71.94515625 17.9659375 72.8828125 17.046875 C73.93082031 16.03367187 73.93082031 16.03367187 75 15 C82.80137406 19.01696767 89.99103217 23.90094158 97.24365234 28.81298828 C99.82070902 30.55466879 102.41015103 32.27741228 105 34 C104.18673634 39.13490893 102.1064831 43.46010747 99.9609375 48.16015625 C98.93556725 51.1904171 98.64629994 52.15493546 100 55 C101.97346267 57.48003862 101.97346267 57.48003862 104.375 59.9375 C107.40405046 63.12934959 109.86261916 66.14581971 112 70 C115.64840062 69.55325707 119.03455387 68.98969446 122.5625 67.9375 C125.89189539 67.02948308 128.57211192 66.83278595 132 67 C135.68223428 73.95150771 138.47066868 81.14769913 141.25 88.5 C141.70890625 89.70398438 142.1678125 90.90796875 142.640625 92.1484375 C143.76409947 95.09755799 144.88255806 98.04858846 146 101 C138.08 105.455 138.08 105.455 130 110 C130.33 112.64 130.66 115.28 131 118 C131.06968391 119.57170946 131.10922398 121.14553906 131.09765625 122.71875 C131.09443359 123.50507813 131.09121094 124.29140625 131.08789062 125.1015625 C131.07951172 125.89304687 131.07113281 126.68453125 131.0625 127.5 C131.05798828 128.32242188 131.05347656 129.14484375 131.04882812 129.9921875 C131.03718489 131.99482396 131.01925556 133.99742227 131 136 C132.03253906 136.12246094 133.06507813 136.24492187 134.12890625 136.37109375 C137.65721446 136.94431032 140.61216216 137.78983984 143.9375 139.0625 C144.89527344 139.42472656 145.85304688 139.78695312 146.83984375 140.16015625 C147.55269531 140.43730469 148.26554687 140.71445312 149 141 C146.78311907 153.35796804 144.52865192 165.70155658 142 178 C135.25766581 178.12910853 128.69613196 177.797837 122 177 C121.649375 178.2375 121.29875 179.475 120.9375 180.75 C119.20729574 186.11024065 116.32776134 190.52936612 113.23046875 195.203125 C111.71586551 197.89166591 111.71586551 197.89166591 112.56640625 200.48046875 C114.82891358 204.45680996 117.26699341 208.30851531 119.734375 212.16015625 C121 215 121 215 120.40576172 216.83862305 C118.53313212 219.71781544 116.21456529 222.03188363 113.7734375 224.421875 C113.26575836 224.92672424 112.75807922 225.43157349 112.23501587 225.95172119 C110.61966158 227.55592096 108.99747791 229.15300856 107.375 230.75 C106.27558302 231.83938107 105.17661941 232.9292199 104.078125 234.01953125 C101.3906398 236.68501885 98.69700979 239.34415143 96 242 C94.23580698 240.88857722 92.47306467 239.77485147 90.7109375 238.66015625 C89.72915527 238.04019775 88.74737305 237.42023926 87.73583984 236.78149414 C85.61711375 235.40184535 83.62977538 233.96973522 81.625 232.4375 C80.75875 231.963125 79.8925 231.48875 79 231 C73.46567567 232.70208501 68.18607637 235.73742511 62.97460938 238.25390625 C62.23662109 238.60582031 61.49863281 238.95773437 60.73828125 239.3203125 C60.06837158 239.64273926 59.39846191 239.96516602 58.70825195 240.29736328 C57 241 57 241 55 241 C54.67 247.93 54.34 254.86 54 262 C43.2357781 264.52411655 33.29021893 265.47532755 22.24951172 265.39111328 C19.7660353 265.37510337 17.28420722 265.391019 14.80078125 265.41015625 C3.23508577 265.42298991 -7.60845163 264.03497414 -19 262 C-19.33 254.74 -19.66 247.48 -20 240 C-21.65 239.67 -23.3 239.34 -25 239 C-26.98193359 238.00927734 -26.98193359 238.00927734 -28.8984375 236.8359375 C-36.60594736 232.11496968 -36.60594736 232.11496968 -45.22216797 231.52490234 C-48.80467958 233.19431806 -51.77997789 235.4004098 -54.86328125 237.84765625 C-58 240 -58 240 -60.36474609 239.94140625 C-63.88896012 238.68243189 -65.68949731 236.76221036 -68.30078125 234.08984375 C-68.7820195 233.60294571 -69.26325775 233.11604767 -69.75907898 232.61439514 C-71.28657021 231.06460092 -72.79952748 229.50145808 -74.3125 227.9375 C-75.3486791 226.88124806 -76.3857791 225.82589867 -77.42382812 224.77148438 C-79.95996895 222.1913578 -82.48326459 219.5990748 -85 217 C-83.03275637 211.86655456 -80.25002568 207.54334672 -77.265625 202.9375 C-75.73707442 200.16346618 -75.73707442 200.16346618 -76.4765625 197.70703125 C-76.97929688 196.81371094 -77.48203125 195.92039062 -78 195 C-78.36802734 194.31470215 -78.73605469 193.6294043 -79.11523438 192.92333984 C-80.42519427 190.49567533 -81.77071506 188.0906919 -83.125 185.6875 C-83.59292969 184.85154297 -84.06085938 184.01558594 -84.54296875 183.15429688 C-85.69261734 181.10135297 -86.84594514 179.05047017 -88 177 C-94.27 177.33 -100.54 177.66 -107 178 C-107.81989215 174.06391258 -108.63106912 170.12634834 -109.4375 166.1875 C-109.66759766 165.08728516 -109.89769531 163.98707031 -110.13476562 162.85351562 C-111.55127935 155.89412209 -112.48509288 149.08441171 -113 142 C-107.39 139.69 -101.78 137.38 -96 135 C-95.814375 131.596875 -95.814375 131.596875 -95.625 128.125 C-95.25028637 121.95265252 -94.459453 116.02201482 -93 110 C-93.70511719 109.74476563 -94.41023438 109.48953125 -95.13671875 109.2265625 C-98.2696348 107.88449478 -100.95714425 106.23270133 -103.8125 104.375 C-105.27623047 103.42753906 -105.27623047 103.42753906 -106.76953125 102.4609375 C-107.50558594 101.97882813 -108.24164063 101.49671875 -109 101 C-106.6065288 93.50151713 -103.76336589 86.2325793 -100.8125 78.9375 C-100.34908203 77.78572266 -99.88566406 76.63394531 -99.40820312 75.44726562 C-98.2745028 72.63054626 -97.13838499 69.81482853 -96 67 C-94.57902179 67.14049059 -93.15854031 67.28601025 -91.73828125 67.43359375 C-90.94719971 67.51407959 -90.15611816 67.59456543 -89.34106445 67.67749023 C-86.12854905 68.12005284 -83.10628972 69.08638538 -80 70 C-78.68 70 -77.36 70 -76 70 C-74.17968254 67.99821068 -74.17968254 67.99821068 -72.625 65.375 C-70.46993073 62.06776166 -68.45460965 59.30542157 -65.5 56.6875 C-64.2625 55.3571875 -64.2625 55.3571875 -63 54 C-63.33484579 48.69676661 -66.38311861 44.37739717 -68.91796875 39.83984375 C-70 37 -70 37 -69.50390625 34.85546875 C-67.53040458 32.42062903 -65.40579312 31.04374701 -62.75 29.375 C-57.81998997 26.2039984 -53.00801457 22.92386631 -48.25 19.5 C-47.62963867 19.05446777 -47.00927734 18.60893555 -46.37011719 18.14990234 C-44.91223892 17.10156357 -43.45593781 16.05103203 -42 15 C-38.14750011 16.58051278 -35.71095984 19.05444554 -32.8125 22 C-31.49185547 23.3303125 -31.49185547 23.3303125 -30.14453125 24.6875 C-28 27 -28 27 -27 29 C-26.41734375 28.81824219 -25.8346875 28.63648438 -25.234375 28.44921875 C-18.54308794 26.39764489 -11.80119035 24.64771106 -5 23 C-4.88406494 22.37432129 -4.76812988 21.74864258 -4.64868164 21.10400391 C-4.12306613 18.27708033 -3.59284139 15.45104062 -3.0625 12.625 C-2.88009766 11.64015625 -2.69769531 10.6553125 -2.50976562 9.640625 C-2.33251953 8.69960938 -2.15527344 7.75859375 -1.97265625 6.7890625 C-1.72914429 5.48509521 -1.72914429 5.48509521 -1.48071289 4.15478516 C-1 2 -1 2 0 0 Z M-56.625 70.75 C-75.07737676 91.77788517 -80.64062134 117.73081692 -79 145 C-76.50495544 167.28095074 -66.83631826 187.16368174 -51 203 C-49.86304688 204.13695312 -49.86304688 204.13695312 -48.703125 205.296875 C-29.0388465 223.93295593 -3.69316912 231.55802675 23.03515625 231.21875 C49.70130907 230.39333223 73.14900057 217.82858105 91.4296875 198.98828125 C95.95986445 193.72143419 99.51856734 187.99540838 103 182 C103.48082031 181.20464844 103.96164062 180.40929687 104.45703125 179.58984375 C107.54819699 174.02574541 109.38212267 168.05741011 111.25 162 C111.6380481 160.75355713 111.6380481 160.75355713 112.03393555 159.48193359 C118.80617428 136.5101021 115.76110221 110.27422617 105 89 C100.127425 80.05747534 94.0870228 72.3113792 87 65 C86.46246094 64.38898438 85.92492187 63.77796875 85.37109375 63.1484375 C72.13945489 48.62348056 49.24865976 38.94061628 29.94238281 37.82299805 C-5.44997885 37.15345608 -31.62636735 44.34118807 -56.625 70.75 Z " fill="#D29B1A" transform="translate(187,352)"/>
<path d="M0 0 C1.03447266 -0.02900391 2.06894531 -0.05800781 3.13476562 -0.08789062 C13.03893642 -0.16851318 21.48728351 2.2551922 29.4375 8.3125 C30.241875 8.84875 31.04625 9.385 31.875 9.9375 C44.20983628 21.36978728 48.93732784 37.84601862 49.74072266 54.1796875 C49.88233684 58.48789988 49.90467159 62.79254411 49.88354492 67.1027832 C49.87501794 69.74444275 49.90395821 72.3839416 49.93554688 75.02539062 C50.00635631 92.15778381 47.83027603 109.34877386 35.875 122.5625 C24.55723802 133.06107159 10.3033614 137.01582547 -4.8203125 136.66015625 C-17.57065835 135.47562516 -30.76826641 129.45160759 -39.08203125 119.4921875 C-49.69412941 104.93077686 -50.95298647 86.99304035 -50.875 69.5625 C-50.87008545 68.2542627 -50.8651709 66.94602539 -50.86010742 65.59814453 C-50.62442309 46.04480546 -47.75369179 25.52421569 -33.2421875 10.98828125 C-23.06870582 2.36155148 -12.96948966 0.11811921 0 0 Z " fill="#0B2949" transform="translate(514.5625,396.6875)"/>
<path d="M0 0 C7.42856246 5.45215593 13.133666 12.09457681 15.125 21.25 C16.1766207 30.42004042 16.32293034 40.27984014 11.125 48.25 C4.51999777 56.37090438 4.51999777 56.37090438 -0.875 57.25 C-0.875 57.91 -0.875 58.57 -0.875 59.25 C-0.215 59.45625 0.445 59.6625 1.125 59.875 C9.79468824 63.84860711 14.56132193 69.3643097 17.87109375 78.25390625 C20.80535108 88.2708537 19.52361135 99.52486906 14.8359375 108.80078125 C8.17597158 119.39618158 -1.40129614 125.10866098 -13.4375 128.0625 C-30.29871223 131.29867596 -47.57605675 129.80264356 -62.42578125 120.68359375 C-70.82556156 114.599047 -75.26069278 107.41130777 -77.40234375 97.29296875 C-78.94084628 87.38806402 -78.11790853 78.41482006 -72.296875 69.95703125 C-68.66702831 65.59958015 -64.69942672 62.21887798 -59.875 59.25 C-58.885 59.25 -57.895 59.25 -56.875 59.25 C-56.875 58.59 -56.875 57.93 -56.875 57.25 C-57.865 56.9715625 -57.865 56.9715625 -58.875 56.6875 C-66.1907461 53.18203833 -71.07486519 47.82493117 -73.875 40.25 C-76.76353824 31.10296223 -74.66360087 21.78320384 -70.875 13.25 C-65.48305365 3.62971883 -56.55748737 -2.47338458 -46.21875 -5.8671875 C-31.07520615 -9.4932088 -13.36966935 -8.14192842 0 0 Z " fill="#0B2949" transform="translate(435.875,403.75)"/>
<path d="M0 0 C69.87204724 0 69.87204724 0 83 13 C92.07030035 24.0352013 93.92776399 36.14339596 93 50 C91.37745088 61.12787623 87.28634462 69.96456053 78.58203125 77.2109375 C66.92241448 85.28976425 53.5728056 86.33291797 39.8125 86.125 C35.914375 86.08375 32.01625 86.0425 28 86 C28 100.85 28 115.7 28 131 C18.76 131 9.52 131 0 131 C0 87.77 0 44.54 0 0 Z " fill="#0C2B4B" transform="translate(577,399)"/>
<path d="M0 0 C9.24 0 18.48 0 28 0 C28.0093457 2.74505859 28.01869141 5.49011719 28.02832031 8.31835938 C28.06213505 17.40285333 28.11770915 26.48712119 28.18390274 35.57143402 C28.22335883 41.07758247 28.25555661 46.58357143 28.27099609 52.08984375 C28.28617478 57.40685298 28.32064237 62.72342369 28.36830902 68.04023743 C28.38311023 70.06549766 28.39104029 72.0908205 28.39188385 74.11613464 C28.39425902 76.96005635 28.42138315 79.80277162 28.45410156 82.64648438 C28.4490712 83.47799011 28.44404083 84.30949585 28.43885803 85.16619873 C28.55042206 91.46175293 30.05907807 96.89582427 34.48248672 101.56478119 C39.33087546 105.77707138 43.04862949 106.17565139 49.3125 106.25 C50.60800781 106.27578125 51.90351562 106.3015625 53.23828125 106.328125 C58.74370847 105.84790082 61.87463365 104.12536635 65.75 100.25 C69.95764428 94.17229159 70.29995163 88.08497877 70.31884766 80.94360352 C70.32889328 80.06475998 70.3389389 79.18591644 70.34928894 78.28044128 C70.38000023 75.39660248 70.39712243 72.51285601 70.4140625 69.62890625 C70.43278385 67.62108065 70.45235798 65.61326284 70.4727478 63.60545349 C70.52397279 58.33660482 70.56365004 53.06773068 70.60089111 47.79876709 C70.64099122 42.41591132 70.69205613 37.03316067 70.7421875 31.65039062 C70.83883278 21.10032709 70.92225988 10.5502198 71 0 C80.24 0 89.48 0 99 0 C99.09062943 12.17920145 99.16390511 24.35817627 99.20724869 36.53763962 C99.228059 42.19400383 99.25625633 47.85012391 99.30175781 53.50634766 C99.34545 58.97231675 99.36918633 64.43805208 99.37950897 69.90418243 C99.38685855 71.98203456 99.40120982 74.05987495 99.42292023 76.13762665 C99.59917493 93.71640089 97.346459 108.69174474 85.015625 122.1484375 C77.33765302 129.20145827 67.37313265 133.44978704 57 134 C55.83339844 134.06445312 54.66679688 134.12890625 53.46484375 134.1953125 C37.55437777 134.78218202 22.81701226 131.01983997 10.8515625 120.0078125 C2.49129239 110.94203436 -0.48845317 99.93947446 -0.34057617 87.86865234 C-0.34101425 86.91134216 -0.34145233 85.95403198 -0.34190369 84.9677124 C-0.33983316 81.84023807 -0.31658469 78.71331682 -0.29296875 75.5859375 C-0.28736662 73.40304863 -0.28309944 71.22015597 -0.28010559 69.03726196 C-0.26870547 63.31949265 -0.23928014 57.60195554 -0.20599365 51.88427734 C-0.17518822 46.03876892 -0.16157794 40.19322262 -0.14648438 34.34765625 C-0.11440555 22.89831958 -0.06167736 11.44921552 0 0 Z " fill="#0B2949" transform="translate(765,399)"/>
<path d="M0 0 C7.40459532 5.65245445 12.09963623 12.74475965 14.5625 21.75 C15.0575 26.205 15.0575 26.205 15.5625 30.75 C6.3225 30.75 -2.9175 30.75 -12.4375 30.75 C-13.4275 27.78 -14.4175 24.81 -15.4375 21.75 C-19.96284919 17.8200915 -25.63830627 18.32000789 -31.3671875 18.45703125 C-36.52348481 18.94904435 -40.12023094 20.83543873 -43.4375 24.75 C-44.90120668 29.35147308 -44.91221761 32.80056478 -42.75 37.125 C-38.80740965 41.60037283 -34.98230726 43.46588947 -29.36328125 45.2734375 C-27.95897223 45.74215111 -26.55467576 46.21090233 -25.15039062 46.6796875 C-22.95730089 47.40168029 -20.76325749 48.12066739 -18.56860352 48.83789062 C-5.48837277 53.13046494 6.91903662 57.30877777 14.484375 69.58984375 C19.39217603 79.4232277 19.43825312 93.54895838 16 103.9375 C11.06619213 114.88438621 3.33157976 121.71070722 -7.8125 126.0703125 C-23.47745314 130.89808901 -39.70518024 130.3288601 -54.625 123.5 C-63.96546843 118.51150894 -70.45331036 111.59784486 -74.25 101.61328125 C-75.61222667 96.79818838 -75.4375 92.91445521 -75.4375 87.75 C-66.5275 87.75 -57.6175 87.75 -48.4375 87.75 C-47.1175 91.05 -45.7975 94.35 -44.4375 97.75 C-37.24900957 103.01300192 -30.1291164 103.51887376 -21.4375 102.75 C-17.42410907 101.73370585 -14.62717926 100.2395707 -12.02734375 96.984375 C-10.02883584 93.54287664 -9.13377892 90.5501859 -9.375 86.5625 C-10.64276273 82.01346901 -11.64035605 80.53973841 -15.4375 77.75 C-21.53042876 74.5836954 -28.28004453 72.84442165 -34.8125 70.8125 C-61.75820966 62.3639764 -61.75820966 62.3639764 -69.5 48.9375 C-73.88987485 40.36084059 -73.74275168 28.96960289 -71.7890625 19.66015625 C-67.37489745 7.71927388 -58.8881376 0.92589987 -47.765625 -4.5703125 C-32.69982264 -10.65621571 -13.52389073 -8.75546704 0 0 Z " fill="#0C2949" transform="translate(950.4375,404.25)"/>
<path d="M0 0 C8.91 0 17.82 0 27 0 C27 34.98 27 69.96 27 106 C42.51 106 58.02 106 74 106 C74 114.25 74 122.5 74 131 C49.58 131 25.16 131 0 131 C0 87.77 0 44.54 0 0 Z " fill="#0A2848" transform="translate(683,399)"/>
<path d="M0 0 C5.65545802 3.20547907 9.20854885 7.97563244 11.1809082 14.14257812 C12.89114712 21.90007547 12.88443475 29.67885858 12.86254883 37.58129883 C12.8593949 39.9576639 12.88289553 42.33277285 12.90820312 44.70898438 C13.00718654 68.60274007 13.00718654 68.60274007 5.546875 77.16015625 C-0.19845631 82.34496743 -4.77597218 82.45881055 -12.2890625 82.3671875 C-17.66488421 82.0154362 -20.79479903 80.04401749 -24.578125 76.41015625 C-31.80311112 67.13293182 -32.08749444 53.80212781 -31.91967773 42.53369141 C-31.89044065 40.39668171 -31.8991881 38.26212945 -31.91210938 36.125 C-31.89522731 25.28663507 -30.61728306 14.40639334 -24.453125 5.16015625 C-17.62032335 -1.33100532 -9.08235103 -3.10940362 0 0 Z " fill="#F9F8F7" transform="translate(523.453125,423.83984375)"/>
<path d="M0 0 C12.87 0 25.74 0 39 0 C43 19 43 19 43 36 C28.81 36 14.62 36 0 36 C0 24.12 0 12.24 0 0 Z " fill="#0D2949" transform="translate(208,448)"/>
<path d="M0 0 C1.56047445 0.00015913 3.12095416 0.00585397 4.68139648 0.01586914 C5.91115456 0.01799156 5.91115456 0.01799156 7.16575623 0.02015686 C9.79470406 0.0257725 12.42356797 0.0383276 15.05249023 0.05102539 C16.8304838 0.05603838 18.60847869 0.06060163 20.38647461 0.06469727 C24.75437181 0.07489787 29.12208664 0.09447007 33.48999023 0.11352539 C33.48999023 11.99352539 33.48999023 23.87352539 33.48999023 36.11352539 C19.62999023 36.11352539 5.76999023 36.11352539 -8.51000977 36.11352539 C-8.51000977 18.80643197 -8.51000977 18.80643197 -6.57250977 10.23852539 C-6.39010742 9.36067383 -6.20770508 8.48282227 -6.01977539 7.57836914 C-4.43480913 0.14343648 -4.43480913 0.14343648 0 0 Z " fill="#0D2948" transform="translate(168.510009765625,447.886474609375)"/>
<path d="M0 0 C14.52 0 29.04 0 44 0 C42 19 42 19 37 35 C24.79 35 12.58 35 0 35 C0 23.45 0 11.9 0 0 Z " fill="#0A2747" transform="translate(208,490)"/>
<path d="M0 0 C13.86 0 27.72 0 42 0 C42 11.55 42 23.1 42 35 C30.12 35 18.24 35 6 35 C0 15.8 0 15.8 0 0 Z " fill="#0B2747" transform="translate(160,490)"/>
<path d="M0 0 C1.39120471 0.00015906 2.78241534 0.00585033 4.17358398 0.01586914 C4.90463852 0.01728409 5.63569305 0.01869904 6.38890076 0.02015686 C8.73253406 0.02577131 11.07607313 0.03832617 13.41967773 0.05102539 C15.00496282 0.05603853 16.59024939 0.06060176 18.17553711 0.06469727 C22.06945383 0.07574542 25.96329979 0.09301967 29.85717773 0.11352539 C29.74124268 0.70665527 29.62530762 1.29978516 29.50585938 1.91088867 C28.96866186 4.68520108 28.4441732 7.46178468 27.91967773 10.23852539 C27.73727539 11.17051758 27.55487305 12.10250977 27.36694336 13.06274414 C25.90926742 20.85468463 25.4319385 28.06687473 24.85717773 36.11352539 C12.64717773 36.11352539 0.43717773 36.11352539 -12.14282227 36.11352539 C-12.14282227 28.19503936 -10.726144 0.38745102 0 0 Z " fill="#0C2948" transform="translate(130.142822265625,447.886474609375)"/>
<path d="M0 0 C5.445 -0.0928125 5.445 -0.0928125 11 -0.1875 C12.12792969 -0.21481201 13.25585938 -0.24212402 14.41796875 -0.27026367 C20.9072174 -0.32346361 27.52084682 -0.25128969 32.55444336 4.45263672 C36.63475152 9.2020722 37.19738325 12.07004836 37.3125 18.25 C37.36857422 20.20679688 37.36857422 20.20679688 37.42578125 22.203125 C36.81499944 27.64972977 34.46395868 30.61111612 30.5625 34.3125 C26.40664827 37.0492804 22.36336517 37.124935 17.48046875 37.09765625 C16.55903076 37.09515869 15.63759277 37.09266113 14.68823242 37.09008789 C13.53299072 37.08098389 12.37774902 37.07187988 11.1875 37.0625 C5.6496875 37.0315625 5.6496875 37.0315625 0 37 C0 24.79 0 12.58 0 0 Z " fill="#FBFAF9" transform="translate(605,424)"/>
<path d="M0 0 C11.88 0 23.76 0 36 0 C37.875 12.4375 37.875 12.4375 38.45263672 16.30249023 C38.61006348 17.33575439 38.76749023 18.36901855 38.9296875 19.43359375 C39.08679199 20.47572021 39.24389648 21.51784668 39.40576172 22.59155273 C40.13151378 26.75434015 41.08334328 30.87504478 42 35 C31.44 35 20.88 35 10 35 C3.19196429 21.38392857 3.19196429 21.38392857 1.625 15.25 C1.30789062 14.05890625 0.99078125 12.8678125 0.6640625 11.640625 C0 8 0 8 0 0 Z " fill="#0B2847" transform="translate(118,490)"/>
<path d="M0 0 C3.61653864 2.92400996 5.86673654 5.46694616 7 10 C7.63483469 16.0082569 7.04421858 20.64637422 4 26 C-1.81768217 31.66458527 -7.42156434 32.40215046 -15.32543945 32.36572266 C-20.66074524 32.22337819 -24.86957125 31.48105722 -29 28 C-33.63458049 22.17706553 -34.67121116 17.24659456 -34 10 C-32.21131297 4.83268192 -29.46969681 2.09440548 -25 -1 C-16.65552907 -4.3062998 -8.0596695 -3.92811077 0 0 Z " fill="#F8F8F7" transform="translate(420,477)"/>
<path d="M0 0 C4.58300125 -0.14505993 9.16541363 -0.23399681 13.75 -0.3125 C15.70292969 -0.3753418 15.70292969 -0.3753418 17.6953125 -0.43945312 C18.94570313 -0.45556641 20.19609375 -0.47167969 21.484375 -0.48828125 C22.63647461 -0.51446533 23.78857422 -0.54064941 24.97558594 -0.56762695 C28 0 28 0 30.33251953 2.38525391 C37.0172526 12.86746344 38 23.72661378 38 36 C26.78 36 15.56 36 4 36 C3.71125 32.761875 3.4225 29.52375 3.125 26.1875 C2.50141997 19.40737068 1.79059841 12.72672638 0.3671875 6.05859375 C0 4 0 4 0 0 Z " fill="#0D2948" transform="translate(253,448)"/>
<path d="M0 0 C11.22 0 22.44 0 34 0 C34 5.85217931 33.74773765 10.37381851 32.3125 15.875 C32.13678467 16.56537354 31.96106934 17.25574707 31.7800293 17.96704102 C30.23559803 23.72221399 28.3153602 30.6846398 24 35 C21.78144736 35.08783542 19.56011504 35.10694609 17.33984375 35.09765625 C16.34314415 35.09553383 16.34314415 35.09553383 15.3263092 35.09336853 C13.19666101 35.08775518 11.06711661 35.07520054 8.9375 35.0625 C7.49674631 35.05748671 6.05599097 35.05292351 4.61523438 35.04882812 C1.07678898 35.03778145 -2.46159539 35.02050792 -6 35 C-5.85377197 34.18845459 -5.70754395 33.37690918 -5.55688477 32.54077148 C-5.00982488 29.50123644 -4.4638933 26.46150142 -3.91870117 23.42163086 C-3.56840388 21.47038608 -3.21683004 19.51937062 -2.86523438 17.56835938 C-2.64287109 16.32763672 -2.42050781 15.08691406 -2.19140625 13.80859375 C-1.98717041 12.67220459 -1.78293457 11.53581543 -1.57250977 10.36499023 C-0.98638276 6.91996313 -0.49420151 3.45941057 0 0 Z " fill="#0B2847" transform="translate(257,490)"/>
<path d="M0 0 C7.74298037 4.30165576 12.79483672 8.052955 19 14 C19.96099609 14.86625 19.96099609 14.86625 20.94140625 15.75 C28.11427584 22.42542225 32.97497567 31.14494648 37 40 C37 40.66 37 41.32 37 42 C24.79 42 12.58 42 0 42 C0 28.14 0 14.28 0 0 Z " fill="#0A2646" transform="translate(208,401)"/>
<path d="M0 0 C0 0.66 0 1.32 0 2 C-1.50390625 3.26171875 -1.50390625 3.26171875 -3.5625 4.6875 C-16.83296707 14.44245737 -23.13501811 27.12587257 -30 42 C-40.23 42 -50.46 42 -61 42 C-53.88388608 24.20971519 -36.22804242 12.74945231 -19.32421875 5.28515625 C-5.65349544 0 -5.65349544 0 0 0 Z " fill="#0B2646" transform="translate(191,401)"/>
<path d="M0 0 C0 13.86 0 27.72 0 42 C-11.55 42 -23.1 42 -35 42 C-29.32635605 24.97906815 -18.97682082 9.61478814 -2.77734375 0.7890625 C-1 0 -1 0 0 0 Z " fill="#0A2645" transform="translate(202,401)"/>
<path d="M0 0 C10.23 0 20.46 0 31 0 C32.175625 2.413125 33.35125 4.82625 34.5625 7.3125 C41.21924214 20.695184 49.24540505 31.59232747 60 42 C39.11439127 38.84122848 18.94440311 27.36932059 6.19140625 10.37890625 C0 1.73200467 0 1.73200467 0 0 Z " fill="#0B2747" transform="translate(131,531)"/>
<path d="M0 0 C11.55 0 23.1 0 35 0 C29.7674609 15.6976173 19.26321646 32.2199169 4 40 C2.02 40.495 2.02 40.495 0 41 C0 27.47 0 13.94 0 0 Z " fill="#0B2746" transform="translate(208,531)"/>
<path d="M0 0 C11.55 0 23.1 0 35 0 C35 13.53 35 27.06 35 41 C16.87162987 31.93581493 8.09800887 18.93918586 0 1 C0 0.67 0 0.34 0 0 Z " fill="#0B2646" transform="translate(167,531)"/>
<path d="M0 0 C18.21351763 2.16366255 31.91402596 10.47421321 45 23 C45.6496875 23.58652344 46.299375 24.17304688 46.96875 24.77734375 C51.71883858 29.20450964 54.99582637 34.25575591 58 40 C58 40.33 58 40.66 58 41 C48.43 41 38.86 41 29 41 C28.195625 38.958125 27.39125 36.91625 26.5625 34.8125 C21.19901068 22.00272977 12.98503255 12.39575194 3 3 C1.99569898 2.00431959 0.99339955 1.00655716 0 0 Z " fill="#0B2747" transform="translate(221,402)"/>
<path d="M0 0 C9.57 0 19.14 0 29 0 C17.49915586 20.12647725 0.41763145 32.60100842 -21.0390625 40.28515625 C-23.92215581 40.98120648 -25.27896773 41.05522959 -28 40 C-27.23816406 39.29617188 -26.47632813 38.59234375 -25.69140625 37.8671875 C-14.0021722 26.79957966 -6.91398429 14.41639277 0 0 Z " fill="#0C2746" transform="translate(249,531)"/>
<path d="M0 0 C3.47626653 2.17266658 6.2370703 4.13852509 8 7.875 C8.91511929 12.81182774 8.53766404 16.66525591 6.5 21.25 C1.8057944 26.17891588 -2.68147757 28.09498819 -9.5 28.3125 C-15.71395915 28.05394414 -20.57437665 26.92745053 -25.4375 22.8125 C-27.68888671 18.57989298 -28.19140583 14.6448332 -28 9.875 C-26.41283596 5.11350788 -24.13345914 2.66508492 -20 -0.125 C-13.98643118 -2.12952294 -5.99553907 -2.25495938 0 0 Z " fill="#F8F8F7" transform="translate(416,422.125)"/>
<path d="M0 0 C3.88138704 3.43006296 6.35600112 5.91243691 7.0703125 11.21875 C7.24846164 16.01690023 7.10097955 19.48442866 5.0625 23.875 C1.15205133 27.99126176 -1.96740256 30.57996952 -7.75 30.875 C-12.37168737 30.62602021 -15.87380304 29.53753218 -19.3125 26.375 C-22.75465019 21.8635428 -23.99257705 17.1816836 -23.69140625 11.546875 C-22.92498878 7.15380169 -21.15959365 3.99240324 -17.8046875 1.0546875 C-12.1050316 -2.73624642 -6.0884905 -2.98680666 0 0 Z " fill="#D19616" transform="translate(638.3125,566.625)"/>
<path d="M0 0 C2.68125 -0.0825 5.3625 -0.165 8.125 -0.25 C8.95789551 -0.28641602 9.79079102 -0.32283203 10.64892578 -0.36035156 C15.91718353 -0.43828809 18.8087403 0.54348857 23 4 C26.61910996 7.98102095 26.45286569 12.20634851 26.2734375 17.34765625 C25.82085653 21.7376917 24.64835524 24.33392051 21.546875 27.46875 C14.52720963 32.96240116 9.83504787 31 0 31 C0 20.77 0 10.54 0 0 Z " fill="#CF9111" transform="translate(935,566)"/>
<path d="M0 0 C3.3 0 6.6 0 10 0 C11.98 5.28 13.96 10.56 16 16 C18.04060129 12.93909807 18.95646418 10.3655313 20.0625 6.875 C21.89630931 1.10369069 21.89630931 1.10369069 23 0 C25.97 0 28.94 0 32 0 C32 10.56 32 21.12 32 32 C30.02 32 28.04 32 26 32 C25.505 22.595 25.505 22.595 25 13 C22.69 19.27 20.38 25.54 18 32 C16.68 31.67 15.36 31.34 14 31 C12.90332031 29.05053711 12.90332031 29.05053711 12.078125 26.52734375 C11.77519531 25.62822266 11.47226562 24.72910156 11.16015625 23.80273438 C10.85980469 22.85720703 10.55945313 21.91167969 10.25 20.9375 C9.93417969 19.98810547 9.61835937 19.03871094 9.29296875 18.06054688 C8.514 15.71183808 7.75509564 13.35649229 7 11 C6.67 17.6 6.34 24.2 6 31 C4.02 31 2.04 31 0 31 C0 20.77 0 10.54 0 0 Z " fill="#D09619" transform="translate(815,565)"/>
<path d="M0 0 C4.5478125 -0.1546875 4.5478125 -0.1546875 9.1875 -0.3125 C10.13391357 -0.35802002 11.08032715 -0.40354004 12.05541992 -0.45043945 C16.48458026 -0.52331068 18.42497377 -0.42799421 22.0859375 2.296875 C24.56469975 5.79749434 24.53557244 7.79193083 24 12 C22.82215457 15.5335363 20.95899047 16.85894186 18 19 C18.433125 19.62648438 18.86625 20.25296875 19.3125 20.8984375 C19.869375 21.71570313 20.42625 22.53296875 21 23.375 C21.556875 24.18710937 22.11375 24.99921875 22.6875 25.8359375 C24 28 24 28 24 30 C21.375 30.5625 21.375 30.5625 18 30 C15.30767599 26.99842256 12 23.17107607 12 19 C10.02 19 8.04 19 6 19 C6 22.63 6 26.26 6 30 C4.02 30 2.04 30 0 30 C0 20.1 0 10.2 0 0 Z " fill="#CF9212" transform="translate(470,566)"/>
<path d="M0 0 C7 0 7 0 8.89624023 1.65234375 C9.36231689 2.40644531 9.82839355 3.16054688 10.30859375 3.9375 C10.82744141 4.74960937 11.34628906 5.56171875 11.88085938 6.3984375 C12.39455078 7.25695312 12.90824219 8.11546875 13.4375 9 C13.97826172 9.85851562 14.51902344 10.71703125 15.07617188 11.6015625 C16.4064168 13.72053672 17.70621808 15.85856786 19 18 C19.33 12.06 19.66 6.12 20 0 C21.98 0 23.96 0 26 0 C26 10.23 26 20.46 26 31 C24.02 31 22.04 31 20 31 C17.8046875 28.8046875 17.8046875 28.8046875 15.875 25.875 C15.23304688 24.92367187 14.59109375 23.97234375 13.9296875 22.9921875 C13.29289062 22.00476563 12.65609375 21.01734375 12 20 C10.68 18.02 9.36 16.04 8 14 C7.67 19.94 7.34 25.88 7 32 C4.69 32 2.38 32 0 32 C0 21.44 0 10.88 0 0 Z " fill="#D09616" transform="translate(375,565)"/>
<path d="M0 0 C2.31 0 4.62 0 7 0 C9.0390625 2.16015625 9.0390625 2.16015625 10.625 5.0625 C13.2251308 9.68565939 15.85583728 13.5981722 19 18 C19.33 12.06 19.66 6.12 20 0 C21.98 0 23.96 0 26 0 C26 10.23 26 20.46 26 31 C20 31 20 31 18.32495117 29.65478516 C17.90189697 29.03909668 17.47884277 28.4234082 17.04296875 27.7890625 C16.33430664 26.78746094 16.33430664 26.78746094 15.61132812 25.765625 C15.14146484 25.05921875 14.67160156 24.3528125 14.1875 23.625 C13.69830078 22.92632813 13.20910156 22.22765625 12.70507812 21.5078125 C9.31740687 16.63481373 9.31740687 16.63481373 8 14 C7.67 19.94 7.34 25.88 7 32 C4.69 32 2.38 32 0 32 C0 21.44 0 10.88 0 0 Z " fill="#CF9312" transform="translate(654,565)"/>
<path d="M0 0 C1.98 0 3.96 0 6 0 C6 10.23 6 20.46 6 31 C4.02 31 2.04 31 0 31 C-2.09141187 28.76654137 -3.61287928 26.84144728 -5.25 24.3125 C-5.683125 23.68666016 -6.11625 23.06082031 -6.5625 22.41601562 C-8.83559401 19.06600825 -10.67391874 15.85300276 -12 12 C-13.20495909 12.98407311 -13.20495909 12.98407311 -13.11352539 14.85766602 C-13.10828857 15.64842529 -13.10305176 16.43918457 -13.09765625 17.25390625 C-13.09443359 18.10791016 -13.09121094 18.96191406 -13.08789062 19.84179688 C-13.07951172 20.73962891 -13.07113281 21.63746094 -13.0625 22.5625 C-13.05798828 23.46419922 -13.05347656 24.36589844 -13.04882812 25.29492188 C-13.03700225 27.53001314 -13.0205222 29.76497437 -13 32 C-15.31 32 -17.62 32 -20 32 C-20 21.77 -20 11.54 -20 1 C-13 1 -13 1 -11.11962891 2.54467773 C-10.65991699 3.25052002 -10.20020508 3.9563623 -9.7265625 4.68359375 C-9.21222656 5.44607422 -8.69789063 6.20855469 -8.16796875 6.99414062 C-7.40419922 8.20360352 -7.40419922 8.20360352 -6.625 9.4375 C-6.09261719 10.23994141 -5.56023438 11.04238281 -5.01171875 11.86914062 C-4.03124068 13.3473423 -3.06090948 14.83235847 -2.10400391 16.32592773 C-1.10656785 17.96043683 -1.10656785 17.96043683 0 19 C0 12.73 0 6.46 0 0 Z " fill="#D1991A" transform="translate(523,565)"/>
<path d="M0 0 C7.26 0 14.52 0 22 0 C22 2.31 22 4.62 22 7 C17.05 7 12.1 7 7 7 C7 8.98 7 10.96 7 13 C11.29 13 15.58 13 20 13 C20 14.98 20 16.96 20 19 C15.71 19 11.42 19 7 19 C7 21.31 7 23.62 7 26 C11.62 26 16.24 26 21 26 C21 27.98 21 29.96 21 32 C14.07 32 7.14 32 0 32 C0 21.44 0 10.88 0 0 Z " fill="#CF9417" transform="translate(904,565)"/>
<path d="M0 0 C2.64 0 5.28 0 8 0 C9.27182867 3.64548687 10.54227857 7.29145283 11.8125 10.9375 C12.34713867 12.46987305 12.34713867 12.46987305 12.89257812 14.03320312 C14.97323932 20.00794582 17.01436766 25.9929924 19 32 C16.69 32 14.38 32 12 32 C11.34 29.69 10.68 27.38 10 25 C6.04 25.33 2.08 25.66 -2 26 C-2.66 27.98 -3.32 29.96 -4 32 C-6.31 32 -8.62 32 -11 32 C-8.9033432 24.67326548 -6.45115246 17.5227421 -3.8125 10.375 C-3.44447266 9.37082031 -3.07644531 8.36664062 -2.69726562 7.33203125 C-1.80077369 4.88705325 -0.90165072 2.44307919 0 0 Z " fill="#D19718" transform="translate(548,565)"/>
<path d="M0 0 C6.93 0 13.86 0 21 0 C21 2.31 21 4.62 21 7 C16.38 7 11.76 7 7 7 C7 8.98 7 10.96 7 13 C11.29 13 15.58 13 20 13 C20 14.98 20 16.96 20 19 C15.71 19 11.42 19 7 19 C7 21.31 7 23.62 7 26 C11.62 26 16.24 26 21 26 C21 27.98 21 29.96 21 32 C14.07 32 7.14 32 0 32 C0 21.44 0 10.88 0 0 Z " fill="#D49F2A" transform="translate(440,565)"/>
<path d="M0 0 C1.134375 0.020625 2.26875 0.04125 3.4375 0.0625 C6.34887006 6.86428493 9.11987409 13.71008538 11.75 20.625 C12.01635254 21.31529297 12.28270508 22.00558594 12.55712891 22.71679688 C13.65983607 25.64479936 14.4375 27.90609799 14.4375 31.0625 C12.1275 31.0625 9.8175 31.0625 7.4375 31.0625 C6.7775 29.0825 6.1175 27.1025 5.4375 25.0625 C1.4775 24.7325 -2.4825 24.4025 -6.5625 24.0625 C-6.706875 25.031875 -6.85125 26.00125 -7 27 C-7.5625 30.0625 -7.5625 30.0625 -8.5625 31.0625 C-10.56208364 31.10330783 -12.56295254 31.10504356 -14.5625 31.0625 C-13.89629927 27.25887752 -12.83889337 23.77181458 -11.53125 20.140625 C-11.13292969 19.03332031 -10.73460937 17.92601562 -10.32421875 16.78515625 C-9.90785156 15.63917969 -9.49148438 14.49320313 -9.0625 13.3125 C-8.64613281 12.15105469 -8.22976563 10.98960937 -7.80078125 9.79296875 C-4.28876049 0.07524141 -4.28876049 0.07524141 0 0 Z " fill="#CF9413" transform="translate(702.5625,565.9375)"/>
<path d="M0 0 C47 0 47 0 56 1 C56 1.33 56 1.66 56 2 C38.18 2 20.36 2 2 2 C2 44.24 2 86.48 2 130 C9.92 130 17.84 130 26 130 C26 115.81 26 101.62 26 87 C26.33 87 26.66 87 27 87 C27.33 101.52 27.66 116.04 28 131 C18.76 131 9.52 131 0 131 C0 87.77 0 44.54 0 0 Z " fill="#011536" transform="translate(577,399)"/>
<path d="M0 0 C7.92 0 15.84 0 24 0 C24 2.31 24 4.62 24 7 C21.36 7 18.72 7 16 7 C16 15.25 16 23.5 16 32 C13.36 32 10.72 32 8 32 C8 23.75 8 15.5 8 7 C5.36 7 2.72 7 0 7 C0 4.69 0 2.38 0 0 Z " fill="#CE910F" transform="translate(872,565)"/>
<path d="M0 0 C7.59 0 15.18 0 23 0 C23 1.98 23 3.96 23 6 C20.36 6 17.72 6 15 6 C15 14.58 15 23.16 15 32 C12.69 32 10.38 32 8 32 C8 23.42 8 14.84 8 6 C5.36 6 2.72 6 0 6 C0 4.02 0 2.04 0 0 Z " fill="#D39D23" transform="translate(409,565)"/>
<path d="M0 0 C7.59 0 15.18 0 23 0 C23 1.98 23 3.96 23 6 C20.36 6 17.72 6 15 6 C15 14.58 15 23.16 15 32 C13.02 32 11.04 32 9 32 C9 23.42 9 14.84 9 6 C6.03 6 3.06 6 0 6 C0 4.02 0 2.04 0 0 Z " fill="#D19716" transform="translate(568,565)"/>
<path d="M0 0 C1.98 0 3.96 0 6 0 C6 8.58 6 17.16 6 26 C10.62 26 15.24 26 20 26 C20 27.98 20 29.96 20 32 C13.4 32 6.8 32 0 32 C0 21.44 0 10.88 0 0 Z " fill="#D49E1F" transform="translate(725,565)"/>
<path d="M0 0 C1.98 0 3.96 0 6 0 C6 8.58 6 17.16 6 26 C10.62 26 15.24 26 20 26 C20 27.98 20 29.96 20 32 C13.4 32 6.8 32 0 32 C0 21.44 0 10.88 0 0 Z " fill="#D0971B" transform="translate(770,565)"/>
<path d="M0 0 C3.1875 0.4375 3.1875 0.4375 6.0625 2.25 C9.14093523 6.86765285 9.2171418 11.04018412 8.1875 16.4375 C5.62683131 19.67599275 4.15812507 20.2790306 0.125 20.9375 C-2.8125 20.4375 -2.8125 20.4375 -5.125 19 C-7.55698693 15.30698281 -8.03197908 11.82708162 -7.8125 7.4375 C-6.05932594 3.51372947 -4.41100066 0.68615566 0 0 Z " fill="#FBF9F4" transform="translate(629.8125,570.5625)"/>
<path d="M0 0 C8 0 8 0 10.9375 1.4375 C13.86132745 5.0701341 14.30435345 8.39356938 14 13 C12.64913319 16.02336858 11.32414606 17.67585394 9 20 C6.03 20 3.06 20 0 20 C0 13.4 0 6.8 0 0 Z " fill="#FCFAF6" transform="translate(941,571)"/>
<path d="M0 0 C2.31 0 4.62 0 7 0 C7 10.56 7 21.12 7 32 C4.69 32 2.38 32 0 32 C0 21.44 0 10.88 0 0 Z " fill="#D2992D" transform="translate(798,565)"/>
<path d="M0 0 C2.31 0 4.62 0 7 0 C7 10.56 7 21.12 7 32 C4.69 32 2.38 32 0 32 C0 21.44 0 10.88 0 0 Z " fill="#D29A1F" transform="translate(599,565)"/>
<path d="M0 0 C2.31 0 4.62 0 7 0 C7 10.56 7 21.12 7 32 C4.69 32 2.38 32 0 32 C0 21.44 0 10.88 0 0 Z " fill="#CF9417" transform="translate(857,565)"/>
<path d="M0 0 C7.26 0 14.52 0 22 0 C22 2.31 22 4.62 22 7 C17.05 7 12.1 7 7 7 C7.33 9.64 7.66 12.28 8 15 C11.3 15 14.6 15 18 15 C18 15.99 18 16.98 18 18 C17.16855469 18.02578125 16.33710937 18.0515625 15.48046875 18.078125 C14.39378906 18.13484375 13.30710937 18.1915625 12.1875 18.25 C10.56908203 18.31960938 10.56908203 18.31960938 8.91796875 18.390625 C5.88255768 18.72954022 5.88255768 18.72954022 4.11328125 21.046875 C3.74589844 21.69140625 3.37851562 22.3359375 3 23 C2.07811539 20.23434618 1.88214778 18.61716298 1.90234375 15.76953125 C1.90484131 15.04612549 1.90733887 14.32271973 1.90991211 13.57739258 C1.91901611 12.66497803 1.92812012 11.75256348 1.9375 10.8125 C1.958125 7.904375 1.97875 4.99625 2 2 C7.94 2 13.88 2 20 2 C20.33 3.32 20.66 4.64 21 6 C21 4.35 21 2.7 21 1 C14.07 1 7.14 1 0 1 C0 0.67 0 0.34 0 0 Z " fill="#D8A737" transform="translate(904,565)"/>
<path d="M0 0 C6 0 6 0 7.75 1.5625 C9.31569311 4.61560156 10.16963325 7.67853299 11 11 C10.01 11.33 9.02 11.66 8 12 C8 11.34 8 10.68 8 10 C7.01 10.495 7.01 10.495 6 11 C5.67 17.27 5.34 23.54 5 30 C3.35 30 1.7 30 0 30 C0 20.1 0 10.2 0 0 Z " fill="#D19715" transform="translate(655,566)"/>
<path d="M0 0 C1.98 0 3.96 0 6 0 C6 9.9 6 19.8 6 30 C4.02 30 2.04 30 0 30 C0 20.1 0 10.2 0 0 Z " fill="#CF9312" transform="translate(359,566)"/>
<path d="M0 0 C2.31 0 4.62 0 7 0 C7 0.33 7 0.66 7 1 C5.02 1 3.04 1 1 1 C1 10.9 1 20.8 1 31 C2.65 31 4.3 31 6 31 C4.68 30.67 3.36 30.34 2 30 C2 20.76 2 11.52 2 2 C7 3 7 3 8.9375 4.6875 C10 7 10 7 9.10546875 9.52734375 C7.68080405 14.0027039 7.54374061 18.20650966 7.375 22.875 C7.33632813 23.75414062 7.29765625 24.63328125 7.2578125 25.5390625 C7.16418966 27.69238793 7.08103541 29.84616414 7 32 C4.69 32 2.38 32 0 32 C0 21.44 0 10.88 0 0 Z " fill="#D9A839" transform="translate(375,565)"/>
<path d="M0 0 C2.09782787 2.09782787 2.6509396 3.3799207 3.625 6.125 C4.01558594 7.21167969 4.01558594 7.21167969 4.4140625 8.3203125 C4.70410156 9.15175781 4.70410156 9.15175781 5 10 C6.32 9.67 7.64 9.34 9 9 C9.33 10.65 9.66 12.3 10 14 C6.99686252 15.50156874 4.20932478 15.09281204 0.875 15.0625 C-0.40632812 15.05347656 -1.68765625 15.04445313 -3.0078125 15.03515625 C-3.99523437 15.02355469 -4.98265625 15.01195312 -6 15 C-6.2165625 16.7015625 -6.2165625 16.7015625 -6.4375 18.4375 C-7 22 -7 22 -8 23 C-9.99958364 23.04080783 -12.00045254 23.04254356 -14 23 C-13.70462173 21.32618981 -13.36106097 19.66088045 -13 18 C-12.773125 16.948125 -12.54625 15.89625 -12.3125 14.8125 C-11 12 -11 12 -8 10.5625 C-5 10 -5 10 -3 11 C-2.87625 9.9275 -2.7525 8.855 -2.625 7.75 C-2.10356064 4.62136385 -1.59911746 2.66519576 0 0 Z " fill="#D39B1D" transform="translate(702,574)"/>
<path d="M0 0 C7.92 0 15.84 0 24 0 C24 2.31 24 4.62 24 7 C21.36 7 18.72 7 16 7 C16 15.25 16 23.5 16 32 C13.36 32 10.72 32 8 32 C8 23.75 8 15.5 8 7 C5.36 7 2.72 7 0 7 C0 6.67 0 6.34 0 6 C2.97 6 5.94 6 9 6 C9 14.25 9 22.5 9 31 C10.98 31 12.96 31 15 31 C14.86100313 27.08305929 14.71261867 23.16652898 14.5625 19.25 C14.52318359 18.13882813 14.48386719 17.02765625 14.44335938 15.8828125 C14.38051758 14.27792969 14.38051758 14.27792969 14.31640625 12.640625 C14.27974854 11.65610352 14.24309082 10.67158203 14.20532227 9.65722656 C14.0547917 6.74578681 14.0547917 6.74578681 13 3 C8.71 2.67 4.42 2.34 0 2 C0 1.34 0 0.68 0 0 Z " fill="#DAAD4A" transform="translate(872,565)"/>
<path d="M0 0 C12.21 0 24.42 0 37 0 C36.67 1.98 36.34 3.96 36 6 C24.12 6 12.24 6 0 6 C0.66 4.68 1.32 3.36 2 2 C1.34 1.34 0.68 0.68 0 0 Z " fill="#E6E9EC" transform="translate(118,484)"/>
<path d="M0 0 C2.31 0 4.62 0 7 0 C7 0.33 7 0.66 7 1 C5.02 1 3.04 1 1 1 C1 10.9 1 20.8 1 31 C2.65 31 4.3 31 6 31 C6 24.73 6 18.46 6 12 C6.99 11.67 7.98 11.34 9 11 C9 11.66 9 12.32 9 13 C9.66 12.67 10.32 12.34 11 12 C10.67 10.35 10.34 8.7 10 7 C14.87305969 11.29975855 17.8200442 16.37224317 21 22 C20.34 22 19.68 22 19 22 C19 22.66 19 23.32 19 24 C15.75480334 23.69593558 14.38099448 23.43719323 12.19921875 20.93359375 C10.79947917 18.62239583 9.39973958 16.31119792 8 14 C7.67 19.94 7.34 25.88 7 32 C4.69 32 2.38 32 0 32 C0 21.44 0 10.88 0 0 Z " fill="#D7A537" transform="translate(654,565)"/>
<path d="M0 0 C0 0.99 0 1.98 0 3 C-1.66342837 4.66342837 -3.7825709 4.36048097 -6.0625 4.5625 C-8.5065625 4.7790625 -8.5065625 4.7790625 -11 5 C-11 11.6 -11 18.2 -11 25 C-9.68 25.33 -8.36 25.66 -7 26 C-4.99617991 26.65509503 -2.99541868 27.31974363 -1 28 C-1 28.33 -1 28.66 -1 29 C-5.62 29 -10.24 29 -15 29 C-15 19.76 -15 10.52 -15 1 C-10.05 0.67 -5.1 0.34 0 0 Z " fill="#D49E20" transform="translate(951,566)"/>
<path d="M0 0 C2.64 0 5.28 0 8 0 C10.125 7.625 10.125 7.625 9 11 C8.01 11.495 8.01 11.495 7 12 C7.33 14.64 7.66 17.28 8 20 C5.36 20 2.72 20 0 20 C0.15597656 19.31292969 0.31195312 18.62585938 0.47265625 17.91796875 C0.66730469 17.01691406 0.86195313 16.11585938 1.0625 15.1875 C1.25972656 14.29417969 1.45695313 13.40085937 1.66015625 12.48046875 C2.08027902 9.41405544 1.37543733 7.66744415 -0.125 5 C-1 3 -1 3 0 0 Z " fill="#D39C22" transform="translate(548,565)"/>
<path d="M0 0 C4.62 0 9.24 0 14 0 C13.67 0.66 13.34 1.32 13 2 C9.7 2 6.4 2 3 2 C3.33 5.63 3.66 9.26 4 13 C7.3 13.33 10.6 13.66 14 14 C13.01 14.33 12.02 14.66 11 15 C11 15.66 11 16.32 11 17 C8.36 17 5.72 17 3 17 C3 20.63 3 24.26 3 28 C2.01 28 1.02 28 0 28 C0 18.76 0 9.52 0 0 Z " fill="#D49F1F" transform="translate(472,567)"/>
<path d="M0 0 C1.98 0 3.96 0 6 0 C8.1953125 2.1953125 8.1953125 2.1953125 10.125 5.125 C10.79789062 6.12402344 11.47078125 7.12304688 12.1640625 8.15234375 C12.76992188 9.09207031 13.37578125 10.03179688 14 11 C14.83230719 12.22986174 15.66536116 13.45921944 16.5 14.6875 C16.995 15.450625 17.49 16.21375 18 17 C17.67 17.66 17.34 18.32 17 19 C16.01 17.68 15.02 16.36 14 15 C14 16.32 14 17.64 14 19 C13.67 19.66 13.34 20.32 13 21 C12.0158875 19.73299277 11.03788503 18.4612381 10.0625 17.1875 C9.51722656 16.47980469 8.97195313 15.77210938 8.41015625 15.04296875 C7 13 7 13 6 10 C6.9375 7.8125 6.9375 7.8125 8 6 C5.74740471 2.5084773 5.29425875 2.07356469 1 1 C1 10.24 1 19.48 1 29 C1.99 29 2.98 29 4 29 C4 22.73 4 16.46 4 10 C4.33 10 4.66 10 5 10 C5 16.6 5 23.2 5 30 C3.35 30 1.7 30 0 30 C0 20.1 0 10.2 0 0 Z " fill="#CC8E0C" transform="translate(376,566)"/>
<path d="M0 0 C1.32 0 2.64 0 4 0 C4 9.24 4 18.48 4 28 C2.68 28 1.36 28 0 28 C0 18.76 0 9.52 0 0 Z " fill="#D49F20" transform="translate(800,567)"/>
<path d="M0 0 C0.33 0 0.66 0 1 0 C1 9.57 1 19.14 1 29 C6.61 29 12.22 29 18 29 C18 28.01 18 27.02 18 26 C13.71 26 9.42 26 5 26 C5 19.4 5 12.8 5 6 C5.33 6 5.66 6 6 6 C6 12.27 6 18.54 6 25 C10.62 25 15.24 25 20 25 C20 26.98 20 28.96 20 31 C13.4 31 6.8 31 0 31 C0 20.77 0 10.54 0 0 Z " fill="#CE8F17" transform="translate(725,566)"/>
<path d="M0 0 C9.9 0 19.8 0 30 0 C30 0.66 30 1.32 30 2 C24.16561605 2.83348342 18.44697419 3.10918152 12.5625 3.125 C11.49708984 3.13176758 11.49708984 3.13176758 10.41015625 3.13867188 C5.24755954 3.12377977 5.24755954 3.12377977 3 2 C3 2.66 3 3.32 3 4 C11.58 4 20.16 4 29 4 C29 4.33 29 4.66 29 5 C18.44 5 7.88 5 -3 5 C-3 4.67 -3 4.34 -3 4 C-1.35 4 0.3 4 2 4 C2 3.34 2 2.68 2 2 C1.34 2 0.68 2 0 2 C0 1.34 0 0.68 0 0 Z " fill="#FDFCFC" transform="translate(130,443)"/>
<path d="M0 0 C0.33 0 0.66 0 1 0 C1 2.31 1 4.62 1 7 C14.86 7 28.72 7 43 7 C43 7.33 43 7.66 43 8 C41.02 8.33 39.04 8.66 37 9 C37 9.66 37 10.32 37 11 C28.42 11 19.84 11 11 11 C11 10.34 11 9.68 11 9 C7.37 8.67 3.74 8.34 0 8 C0 5.36 0 2.72 0 0 Z " fill="#DEE2E6" transform="translate(159,477)"/>
<path d="M0 0 C1.62463842 -0.05395478 3.24978541 -0.09277195 4.875 -0.125 C5.77992188 -0.14820313 6.68484375 -0.17140625 7.6171875 -0.1953125 C10 0 10 0 12 2 C11.67028521 5.29714793 11.3773161 6.6226839 9 9 C5.98173347 9.27240673 3.03629378 9.08675125 0 9 C0 6.03 0 3.06 0 0 Z " fill="#F9F5EA" transform="translate(476,571)"/>
<path d="M0 0 C7.59 0 15.18 0 23 0 C23 1.98 23 3.96 23 6 C20.36 6.33 17.72 6.66 15 7 C14.67 14.26 14.34 21.52 14 29 C13.67 29 13.34 29 13 29 C12.97112764 25.18751574 12.95324508 21.3750593 12.9375 17.5625 C12.92912109 16.47388672 12.92074219 15.38527344 12.91210938 14.26367188 C12.90888672 13.22919922 12.90566406 12.19472656 12.90234375 11.12890625 C12.89710693 10.17056885 12.89187012 9.21223145 12.88647461 8.22485352 C13 6 13 6 14 5 C16.33297433 4.95907063 18.66705225 4.95758277 21 5 C21 4.01 21 3.02 21 2 C14.73 2 8.46 2 2 2 C2 3.32 2 4.64 2 6 C1.34 6 0.68 6 0 6 C0 4.02 0 2.04 0 0 Z " fill="#D49C27" transform="translate(568,565)"/>
<path d="M0 0 C0.33 1.32 0.66 2.64 1 4 C2.65 2.68 4.3 1.36 6 0 C6.25427918 3.1234924 6.47412319 6.24846821 6.6875 9.375 C6.76033203 10.26445312 6.83316406 11.15390625 6.90820312 12.0703125 C6.96298828 12.92109375 7.01777344 13.771875 7.07421875 14.6484375 C7.13182373 15.43395996 7.18942871 16.21948242 7.2487793 17.02880859 C7.16668213 17.67930176 7.08458496 18.32979492 7 19 C6.01 19.66 5.02 20.32 4 21 C3.34 20.67 2.68 20.34 2 20 C1.3671875 17.05078125 1.3671875 17.05078125 0.875 13.3125 C0.70742187 12.09175781 0.53984375 10.87101562 0.3671875 9.61328125 C0.03799612 6.37389796 -0.06994055 3.25223549 0 0 Z " fill="#E7EBED" transform="translate(154,490)"/>
<path d="M0 0 C0.66 0.33 1.32 0.66 2 1 C2 8.26 2 15.52 2 23 C0.68 23 -0.64 23 -2 23 C-2.0580476 19.72924117 -2.09361165 16.45861476 -2.125 13.1875 C-2.14175781 12.25873047 -2.15851562 11.32996094 -2.17578125 10.37304688 C-2.18222656 9.48037109 -2.18867187 8.58769531 -2.1953125 7.66796875 C-2.20578613 6.84578857 -2.21625977 6.0236084 -2.22705078 5.17651367 C-2 3 -2 3 0 0 Z " fill="#D39E1F" transform="translate(884,572)"/>
<path d="M0 0 C0.33 0 0.66 0 1 0 C1.04898438 0.81984375 1.09796875 1.6396875 1.1484375 2.484375 C1.22320313 3.56203125 1.29796875 4.6396875 1.375 5.75 C1.44460938 6.81734375 1.51421875 7.8846875 1.5859375 8.984375 C1.9728223 11.80206432 2.55686166 13.5830366 4 16 C4.66 15.67 5.32 15.34 6 15 C6 19.29 6 23.58 6 28 C4.02 28 2.04 28 0 28 C0 18.76 0 9.52 0 0 Z " fill="#D49F23" transform="translate(857,567)"/>
<path d="M0 0 C2.95273622 2.82179448 5.43419362 5.742885 7.8125 9.0625 C8.43769531 9.91972656 9.06289063 10.77695312 9.70703125 11.66015625 C10.13371094 12.43230469 10.56039062 13.20445312 11 14 C10.67 14.99 10.34 15.98 10 17 C8.68 15.35 7.36 13.7 6 12 C6.61454696 15.99455527 8.70646737 18.74466336 11 22 C10.67 22.66 10.34 23.32 10 24 C8.70759488 22.22970554 7.41610207 20.45874502 6.125 18.6875 C5.40570312 17.70136719 4.68640625 16.71523438 3.9453125 15.69921875 C1.05280519 11.68571965 -0.25342877 9.75700777 -0.125 4.8125 C-0.10695313 3.91144531 -0.08890625 3.01039063 -0.0703125 2.08203125 C-0.04710937 1.39496094 -0.02390625 0.70789063 0 0 Z " fill="#CF9312" transform="translate(511,569)"/>
<path d="M0 0 C1.98 0 3.96 0 6 0 C5.67 8.25 5.34 16.5 5 25 C4.67 25 4.34 25 4 25 C3.67 23.35 3.34 21.7 3 20 C2.67 20 2.34 20 2 20 C2 14.06 2 8.12 2 2 C1.34 2 0.68 2 0 2 C0 1.34 0 0.68 0 0 Z " fill="#D39C24" transform="translate(674,565)"/>
<path d="M0 0 C5.94 0 11.88 0 18 0 C18 0.99 18 1.98 18 3 C13.38 3 8.76 3 4 3 C3.67 4.98 3.34 6.96 3 9 C2.01 9.33 1.02 9.66 0 10 C0 6.7 0 3.4 0 0 Z " fill="#D49F20" transform="translate(906,567)"/>
<path d="M0 0 C0.99 0 1.98 0 3 0 C4.18681726 3.56045177 4.09689832 6.43808337 4.0625 10.1875 C4.05347656 11.45980469 4.04445313 12.73210938 4.03515625 14.04296875 C4.02355469 15.01878906 4.01195312 15.99460937 4 17 C2.68 17 1.36 17 0 17 C0 11.39 0 5.78 0 0 Z " fill="#D39D1D" transform="translate(816,578)"/>
<path d="M0 0 C3.96 0 7.92 0 12 0 C12 1.98 12 3.96 12 6 C7.71 6 3.42 6 -1 6 C-0.67 8.64 -0.34 11.28 0 14 C-0.99 13.67 -1.98 13.34 -3 13 C-3.04241723 10.66705225 -3.04092937 8.33297433 -3 6 C-2 5 -2 5 0.72265625 4.90234375 C2.37587891 4.91974609 2.37587891 4.91974609 4.0625 4.9375 C5.71958984 4.95103516 5.71958984 4.95103516 7.41015625 4.96484375 C8.26480469 4.97644531 9.11945312 4.98804688 10 5 C10 4.01 10 3.02 10 2 C6.7 2 3.4 2 0 2 C0 1.34 0 0.68 0 0 Z " fill="#CD8F0A" transform="translate(912,578)"/>
<path d="M0 0 C0.33 0 0.66 0 1 0 C1.66 5.94 2.32 11.88 3 18 C10.26 18.99 17.52 19.98 25 21 C25 21.33 25 21.66 25 22 C16.35734539 22.22710625 8.45863988 21.82889511 0 20 C0 13.4 0 6.8 0 0 Z " fill="#CA8C0C" transform="translate(168,594)"/>
<path d="M0 0 C1.98 0 3.96 0 6 0 C5.67 4.95 5.34 9.9 5 15 C4.67 15 4.34 15 4 15 C3.67 13.35 3.34 11.7 3 10 C2.67 10 2.34 10 2 10 C1.67 12.97 1.34 15.94 1 19 C0.67 19 0.34 19 0 19 C0 12.73 0 6.46 0 0 Z " fill="#D7A432" transform="translate(523,565)"/>
<path d="M0 0 C0.33 0 0.66 0 1 0 C1.33 2.97 1.66 5.94 2 9 C6.29 9.33 10.58 9.66 15 10 C15 10.66 15 11.32 15 12 C9.39 12 3.78 12 -2 12 C-2.25 3.375 -2.25 3.375 0 0 Z " fill="#D5A022" transform="translate(444,583)"/>
<path d="M0 0 C0.66 0.33 1.32 0.66 2 1 C2 3.64 2 6.28 2 9 C1.34 8.67 0.68 8.34 0 8 C-2.55362604 7.91341431 -5.0795442 7.88437484 -7.6328125 7.90234375 C-8.38464813 7.9037587 -9.13648376 7.90517365 -9.91110229 7.90663147 C-12.3157751 7.91223535 -14.72035527 7.92478843 -17.125 7.9375 C-18.75390491 7.9425145 -20.38281127 7.9470775 -22.01171875 7.95117188 C-26.00784827 7.96220603 -30.00390842 7.97947321 -34 8 C-34 7.67 -34 7.34 -34 7 C-23.11 7 -12.22 7 -1 7 C-1 5.02 -1 3.04 -1 1 C-0.67 0.67 -0.34 0.34 0 0 Z " fill="#153556" transform="translate(153,475)"/>
<path d="M0 0 C2 1 2 1 2.8515625 3.28515625 C3.10679687 4.20167969 3.36203125 5.11820313 3.625 6.0625 C3.88539063 6.98160156 4.14578125 7.90070312 4.4140625 8.84765625 C4.60742188 9.55792969 4.80078125 10.26820313 5 11 C2.36 11 -0.28 11 -3 11 C-2.69078116 9.54096742 -2.37751201 8.08279278 -2.0625 6.625 C-1.88847656 5.81289063 -1.71445312 5.00078125 -1.53515625 4.1640625 C-1 2 -1 2 0 0 Z " fill="#F7F0DD" transform="translate(551,574)"/>
<path d="M0 0 C2.3129482 2.3129482 2.49580975 3.47904875 3.125 6.625 C3.29257812 7.44226563 3.46015625 8.25953125 3.6328125 9.1015625 C3.81457031 10.04128906 3.81457031 10.04128906 4 11 C1.69 11 -0.62 11 -3 11 C-2.53199289 6.94393835 -2.12046792 3.53411321 0 0 Z " fill="#F7EEDB" transform="translate(702,574)"/>
<path d="M0 0 C2.65499376 2.65499376 2.32897553 4.04963297 2.375 7.75 C2.30967554 13.18499497 1.58930185 15.96203542 -2 20 C-4.09749995 17.64031256 -4.96905704 16.45383006 -5.1875 13.25 C-5.125625 12.5075 -5.06375 11.765 -5 11 C-2.525 11.495 -2.525 11.495 0 12 C0 8.04 0 4.08 0 0 Z " fill="#CE8F0E" transform="translate(643,573)"/>
<path d="M0 0 C4.95 0.99 4.95 0.99 10 2 C9.01 2.33 8.02 2.66 7 3 C7.44730469 3.50789063 7.89460937 4.01578125 8.35546875 4.5390625 C11.96286942 8.64642275 15.52114925 12.78321121 19 17 C18.67 17.66 18.34 18.32 18 19 C17.28714844 18.20335937 16.57429688 17.40671875 15.83984375 16.5859375 C10.80919483 11.00677819 5.81467235 5.78095282 0 1 C0 0.67 0 0.34 0 0 Z " fill="#101B34" transform="translate(221,402)"/>
<path d="M0 0 C4.18423892 3.50897269 8.19588166 7.08060535 12 11 C5.93267948 9.96232949 0.5626148 8.66038099 -5 6 C-1.79937313 4.39968656 0.72271806 5.96826309 4 7 C3.01 5.824375 3.01 5.824375 2 4.625 C0 2 0 2 0 0 Z " fill="#0B1835" transform="translate(179,562)"/>
<path d="M0 0 C3.10174775 2.06783183 3.81232145 2.61968411 5 6 C5.0777346 8.33203812 5.08967728 10.66839059 5 13 C3.68 12.34 2.36 11.68 1 11 C0.67 11.99 0.34 12.98 0 14 C-1.10370043 10.6888987 -0.92673641 8.75251051 -0.5625 5.3125 C-0.46066406 4.31863281 -0.35882813 3.32476562 -0.25390625 2.30078125 C-0.17011719 1.54152344 -0.08632812 0.78226562 0 0 Z " fill="#E9EDEF" transform="translate(251,491)"/>
<path d="M0 0 C0.66 0.99 1.32 1.98 2 3 C-2 7 -2 7 -4.3828125 7.1953125 C-5.28773438 7.17210937 -6.19265625 7.14890625 -7.125 7.125 C-8.49011719 7.09792969 -8.49011719 7.09792969 -9.8828125 7.0703125 C-10.58148437 7.04710937 -11.28015625 7.02390625 -12 7 C-11.34 5.35 -10.68 3.7 -10 2 C-8.72125 2.04125 -7.4425 2.0825 -6.125 2.125 C-3.98128508 2.24212873 -3.98128508 2.24212873 -2 2 C-1.34 1.34 -0.68 0.68 0 0 Z " fill="#D49D1E" transform="translate(635,589)"/>
<path d="M0 0 C4.20763224 1.5027258 5.8027758 4.23332995 8 8 C8 8.66 8 9.32 8 10 C5.1875 9.875 5.1875 9.875 2 9 C0.0625 6.125 0.0625 6.125 -1 3 C-0.67 2.01 -0.34 1.02 0 0 Z " fill="#D39C1E" transform="translate(484,585)"/>
<path d="M0 0 C0.99 0.33 1.98 0.66 3 1 C3 3.31 3 5.62 3 8 C2.34 8 1.68 8 1 8 C0.67 8.66 0.34 9.32 0 10 C-0.66 9.67 -1.32 9.34 -2 9 C-2.33 9.99 -2.66 10.98 -3 12 C-2.88541307 10.56163249 -2.75790884 9.12429034 -2.625 7.6875 C-2.55539063 6.88699219 -2.48578125 6.08648437 -2.4140625 5.26171875 C-2 3 -2 3 0 0 Z " fill="#FBFBF9" transform="translate(252,502)"/>
<path d="M0 0 C0.33 0 0.66 0 1 0 C1.33 3.96 1.66 7.92 2 12 C1.01 11.01 0.02 10.02 -1 9 C-1.99 12.465 -1.99 12.465 -3 16 C-3.33 16 -3.66 16 -4 16 C-4 12.37 -4 8.74 -4 5 C-3.01 5 -2.02 5 -1 5 C-0.67 3.35 -0.34 1.7 0 0 Z " fill="#E9ECEF" transform="translate(255,463)"/>
<path d="M0 0 C0.99 0.33 1.98 0.66 3 1 C3 1.66 3 2.32 3 3 C2.34 3 1.68 3 1 3 C0.67 4.98 0.34 6.96 0 9 C1.32 9.33 2.64 9.66 4 10 C3.01 11.98 2.02 13.96 1 16 C-0.91302307 12.73386305 -1.35674661 10.00554752 -1.625 6.25 C-1.69976562 5.26515625 -1.77453125 4.2803125 -1.8515625 3.265625 C-1.90054688 2.51796875 -1.94953125 1.7703125 -2 1 C-1.34 0.67 -0.68 0.34 0 0 Z " fill="#CE9311" transform="translate(76,493)"/>
<path d="M0 0 C2 1 2 1 3.125 3.75 C3.9420917 6.78491204 4.50184381 8.90529653 4 12 C2 13.8125 2 13.8125 0 15 C-1.4606285 12.35261084 -2 11.10551666 -2 8 C-1.01 7.34 -0.02 6.68 1 6 C0.67 4.02 0.34 2.04 0 0 Z " fill="#CF9315" transform="translate(827,574)"/>
<path d="M0 0 C1.32 0 2.64 0 4 0 C4.66 2.31 5.32 4.62 6 7 C3.69 7 1.38 7 -1 7 C-2 4 -2 4 -1.0625 1.8125 C-0.5365625 0.9153125 -0.5365625 0.9153125 0 0 Z " fill="#D59F2C" transform="translate(561,590)"/>
<path d="M0 0 C2.97 0.495 2.97 0.495 6 1 C6 3.31 6 5.62 6 8 C4.35 8 2.7 8 1 8 C0.67 5.36 0.34 2.72 0 0 Z " fill="#D39D1F" transform="translate(953,570)"/>
<path d="M0 0 C0.99 0.33 1.98 0.66 3 1 C3.33333333 2.33333333 3.66666667 3.66666667 4 5 C4.99 5.33 5.98 5.66 7 6 C7.144375 6.78375 7.28875 7.5675 7.4375 8.375 C7.87798925 10.96421018 7.87798925 10.96421018 9 13 C8.01 14.32 7.02 15.64 6 17 C5.938125 16.01 5.87625 15.02 5.8125 14 C5.25917469 9.88359508 3.39459172 7.06755577 1.05859375 3.69921875 C0 2 0 2 0 0 Z " fill="#CF9212" transform="translate(105,538)"/>
<path d="M0 0 C2.34914492 2.34914492 2.73140357 3.95679446 3.625 7.125 C3.88539063 8.03507813 4.14578125 8.94515625 4.4140625 9.8828125 C4.70410156 10.93082031 4.70410156 10.93082031 5 12 C4.34 12 3.68 12 3 12 C2.34 12.66 1.68 13.32 1 14 C0.67 9.38 0.34 4.76 0 0 Z " fill="#FAF6ED" transform="translate(822,577)"/>
<path d="M0 0 C0.66 1.32 1.32 2.64 2 4 C2.66 3.01 3.32 2.02 4 1 C4.66 0.67 5.32 0.34 6 0 C6.25 6.625 6.25 6.625 4 10 C3.67 9.01 3.34 8.02 3 7 C2.01 6.67 1.02 6.34 0 6 C0 4.02 0 2.04 0 0 Z " fill="#D6A229" transform="translate(638,578)"/>
<path d="M0 0 C1.485 0.99 1.485 0.99 3 2 C3.66 1.34 4.32 0.68 5 0 C4.71872579 1.48117801 4.42466268 2.95993249 4.125 4.4375 C3.96257813 5.26121094 3.80015625 6.08492187 3.6328125 6.93359375 C3.42398438 7.61550781 3.21515625 8.29742188 3 9 C2.01 9.495 2.01 9.495 1 10 C1.33 8.35 1.66 6.7 2 5 C1.01 5.33 0.02 5.66 -1 6 C-1.042721 4.33388095 -1.04063832 2.66617115 -1 1 C-0.67 0.67 -0.34 0.34 0 0 Z " fill="#CE9210" transform="translate(833,580)"/>
<path d="M0 0 C0.66 0.33 1.32 0.66 2 1 C2.6328125 3.06640625 2.6328125 3.06640625 3.125 5.5625 C3.29257812 6.38878906 3.46015625 7.21507812 3.6328125 8.06640625 C3.75398437 8.70449219 3.87515625 9.34257813 4 10 C2.68 8.35 1.36 6.7 0 5 C-0.66 6.32 -1.32 7.64 -2 9 C-2.33 7.35 -2.66 5.7 -3 4 C-2.01 3.67 -1.02 3.34 0 3 C0 2.01 0 1.02 0 0 Z " fill="#CD900F" transform="translate(557,573)"/>
<path d="M0 0 C-2.07772471 0.86772029 -4.16243177 1.71873619 -6.25 2.5625 C-7.99023438 3.27599609 -7.99023438 3.27599609 -9.765625 4.00390625 C-12.86266644 4.95770524 -14.07321701 5.20983356 -17 4 C-14.04925888 2.43220483 -11.12880766 1.29925425 -7.9375 0.3125 C-7.08027344 0.04050781 -6.22304687 -0.23148438 -5.33984375 -0.51171875 C-3 -1 -3 -1 0 0 Z " fill="#070F28" transform="translate(238,567)"/>
<path d="M0 0 C0 0.66 0 1.32 0 2 C-2.97 3.32 -5.94 4.64 -9 6 C-9.33 4.68 -9.66 3.36 -10 2 C-8.7090864 1.66376204 -7.41723903 1.33110751 -6.125 1 C-5.40570313 0.814375 -4.68640625 0.62875 -3.9453125 0.4375 C-2 0 -2 0 0 0 Z " fill="#1C2D48" transform="translate(191,401)"/>
<path d="M0 0 C0.93423645 3.01031744 1.04449911 3.86650268 0 7 C-2.31 7 -4.62 7 -7 7 C-6.34 5.02 -5.68 3.04 -5 1 C-4.67 1.99 -4.34 2.98 -4 4 C-3.01 4.33 -2.02 4.66 -1 5 C-0.67 3.35 -0.34 1.7 0 0 Z " fill="#D2992B" transform="translate(544,590)"/>
<path d="M0 0 C2 3 2 3 2 6 C-0.31 6 -2.62 6 -5 6 C-5 5.01 -5 4.02 -5 3 C-3.35 3 -1.7 3 0 3 C0 2.01 0 1.02 0 0 Z " fill="#D29B2A" transform="translate(715,591)"/>
<path d="M0 0 C3.96 0.33 7.92 0.66 12 1 C12 1.66 12 2.32 12 3 C8.625 3.625 8.625 3.625 5 4 C4.34 3.34 3.68 2.68 3 2 C2.01 1.34 1.02 0.68 0 0 Z " fill="#163352" transform="translate(501,529)"/>
<path d="M0 0 C0.66 0.33 1.32 0.66 2 1 C2.625 3.5625 2.625 3.5625 3 6 C1.35 6.33 -0.3 6.66 -2 7 C-1.34 4.69 -0.68 2.38 0 0 Z " fill="#FAF5E9" transform="translate(551,574)"/>
<path d="M0 0 C0.99 0 1.98 0 3 0 C3.625 1.875 3.625 1.875 4 4 C3.34 4.66 2.68 5.32 2 6 C0.68 6 -0.64 6 -2 6 C-1.34 4.02 -0.68 2.04 0 0 Z " fill="#D59F24" transform="translate(699,570)"/>
<path d="M0 0 C0 0.66 0 1.32 0 2 C0.66 2 1.32 2 2 2 C0.93453047 4.13093906 -0.29159719 5.36587557 -2 7 C-2.66 5.02 -3.32 3.04 -4 1 C-2 0 -2 0 0 0 Z " fill="#D39D20" transform="translate(837,577)"/>
<path d="M0 0 C2 2 2 2 2.125 4.625 C2.08375 5.40875 2.0425 6.1925 2 7 C1.01 7.33 0.02 7.66 -1 8 C-1.125 2.25 -1.125 2.25 0 0 Z " fill="#FCFAF3" transform="translate(702,574)"/>
<path d="M0 0 C0.66 0.33 1.32 0.66 2 1 C2.625 3.5625 2.625 3.5625 3 6 C2.34 6 1.68 6 1 6 C1 5.34 1 4.68 1 4 C0.34 4 -0.32 4 -1 4 C-1.33 4.66 -1.66 5.32 -2 6 C-1.125 1.125 -1.125 1.125 0 0 Z " fill="#CF9314" transform="translate(836,573)"/>
<path d="M0 0 C0.33 1.32 0.66 2.64 1 4 C-0.175625 4.2165625 -0.175625 4.2165625 -1.375 4.4375 C-3.96421018 4.87798925 -3.96421018 4.87798925 -6 6 C-5.8125 4.125 -5.8125 4.125 -5 2 C-2.4375 0.75 -2.4375 0.75 0 0 Z " fill="#EBEDF1" transform="translate(247,531)"/>
<path d="M0 0 C1.64350079 3.28700157 2.41321669 5.47930015 3 9 C2.01 9 1.02 9 0 9 C0 6.03 0 3.06 0 0 Z " fill="#D59F27" transform="translate(615,576)"/>
<path d="M0 0 C0.66 0.33 1.32 0.66 2 1 C1.01 1.99 0.02 2.98 -1 4 C-0.67 2.68 -0.34 1.36 0 0 Z M-3 4 C-2.34 4.33 -1.68 4.66 -1 5 C-1.99 6.485 -1.99 6.485 -3 8 C-3.99 7.67 -4.98 7.34 -6 7 C-5.01 6.01 -4.02 5.02 -3 4 Z " fill="#F6EDDA" transform="translate(493,578)"/>
<path d="M0 0 C0.66 0 1.32 0 2 0 C3.125 6.625 3.125 6.625 2 10 C0.39644899 6.49223216 -0.22036864 3.85645121 0 0 Z " fill="#071533" transform="translate(467,493)"/>
</svg>
